<svg viewBox="0 0 24 24" xmlns="http://www.w3.org/2000/svg" id="Bookmarks-Document--Streamline-Ultimate" height="24" width="24">
  <desc>
    Bookmarks Document Streamline Icon: https://streamlinehq.com
  </desc>
  <path d="M11.5 1.5h11a1 1 0 0 1 1 1v20a1 1 0 0 1 -1 1h-21a1 1 0 0 1 -1 -1v-20a1 1 0 0 1 1 -1h3" fill="none" stroke="#000000" stroke-linecap="round" stroke-linejoin="round" stroke-width="1"></path>
  <path d="M11.5 10.5c0 0.55 -0.3 0.661 -0.659 0.248L8 7.5l-2.844 3.246c-0.363 0.414 -0.659 0.3 -0.659 -0.247v-9a1 1 0 0 1 1 -1h5a1 1 0 0 1 1 1Z" fill="none" stroke="#000000" stroke-linecap="round" stroke-linejoin="round" stroke-width="1"></path>
  <path d="m14.5 6.499 6 0" fill="none" stroke="#000000" stroke-linecap="round" stroke-linejoin="round" stroke-width="1"></path>
  <path d="m14.5 10.499 6 0" fill="none" stroke="#000000" stroke-linecap="round" stroke-linejoin="round" stroke-width="1"></path>
  <path d="m3.5 14.499 17 0" fill="none" stroke="#000000" stroke-linecap="round" stroke-linejoin="round" stroke-width="1"></path>
  <path d="m3.5 18.499 16.497 0" fill="none" stroke="#000000" stroke-linecap="round" stroke-linejoin="round" stroke-width="1"></path>
</svg>