<svg xmlns="http://www.w3.org/2000/svg" fill="none" viewBox="-0.5 -0.5 24 24" id="Button-Play--Streamline-Ultimate" height="24" width="24">
  <desc>
    Button Play Streamline Icon: https://streamlinehq.com
  </desc>
  <path stroke="#000000" stroke-linecap="round" stroke-linejoin="round" d="M11.076799999999999 21.619079999999997c5.843196 0 10.579999999999998 -4.736803999999999 10.579999999999998 -10.579999999999998 0 -5.84315 -4.736803999999999 -10.579978839999999 -10.579999999999998 -10.579978839999999C5.2336592 0.45910115999999995 0.49683588 5.19593 0.49683588 11.03908c0 5.843196 4.73682332 10.579999999999998 10.57996412 10.579999999999998" stroke-width="1"></path>
  <path stroke="#000000" stroke-linecap="round" stroke-linejoin="round" d="M8.909059199999998 7.3098968c-0.0840696 -0.0605544 -0.1842208 -0.09478759999999999 -0.287776 -0.09838479999999998 -0.10354599999999999 -0.0035972 -0.2058224 0.023616399999999996 -0.293894 0.07819079999999999 -0.08807159999999999 0.054583599999999996 -0.157964 0.13406239999999997 -0.200836 0.22838999999999998 -0.0428628 0.0943184 -0.056773199999999996 0.1992444 -0.039974 0.301484v6.439963199999999c-0.0165784 0.102212 -0.0025024 0.207 0.0404524 0.30111599999999994 0.0429548 0.094208 0.11286559999999998 0.17351199999999997 0.20088199999999998 0.22797599999999998 0.0880256 0.054464 0.19020999999999996 0.081604 0.29365479999999994 0.077924 0.10343559999999999 -0.0035879999999999996 0.2034764 -0.03781199999999999 0.2874908 -0.098256l6.635076799999999 -3.3175199999999996c0.45171999999999995 -0.22631999999999997 0.45171999999999995 -0.59616 0 -0.82248z" stroke-width="1"></path>
</svg>