<svg viewBox="0 0 24 24" xmlns="http://www.w3.org/2000/svg" id="Calendar-Edit-1--Streamline-Ultimate" height="24" width="24">
  <desc>
    Calendar Edit 1 Streamline Icon: https://streamlinehq.com
  </desc>
  <path d="m15.7 22.3 -4.2 1.2 1.2 -4.2 7.179 -7.179a2.121 2.121 0 0 1 3 3Z" fill="none" stroke="#000000" stroke-linecap="round" stroke-linejoin="round" stroke-width="1"></path>
  <path d="m18.979 13.022 3 3" fill="none" stroke="#000000" stroke-linecap="round" stroke-linejoin="round" stroke-width="1"></path>
  <path d="m12.7 19.301 3 3" fill="none" stroke="#000000" stroke-linecap="round" stroke-linejoin="round" stroke-width="1"></path>
  <path d="M9.5 18.5h-8a1 1 0 0 1 -1 -1v-14a1 1 0 0 1 1 -1h18a1 1 0 0 1 1 1v6" fill="none" stroke="#000000" stroke-linecap="round" stroke-linejoin="round" stroke-width="1"></path>
  <path d="m5.5 0.501 0 5" fill="none" stroke="#000000" stroke-linecap="round" stroke-linejoin="round" stroke-width="1"></path>
  <path d="m15.5 0.501 0 5" fill="none" stroke="#000000" stroke-linecap="round" stroke-linejoin="round" stroke-width="1"></path>
  <path d="m0.5 7.501 20 0" fill="none" stroke="#000000" stroke-linecap="round" stroke-linejoin="round" stroke-width="1"></path>
</svg>