<svg xmlns="http://www.w3.org/2000/svg" viewBox="0 0 24 24" id="Calendar-3--Streamline-Ultimate" height="24" width="24">
  <desc>
    Calendar 3 Streamline Icon: https://streamlinehq.com
  </desc>
  <title>calendar-3</title>
  <path d="M1.5 2.501h21s1 0 1 1v19s0 1 -1 1h-21s-1 0 -1 -1v-19s0 -1 1 -1" fill="none" stroke="#000000" stroke-linecap="round" stroke-linejoin="round" stroke-width="1"></path>
  <path d="m5.5 0.501 0 5" fill="none" stroke="#000000" stroke-linecap="round" stroke-linejoin="round" stroke-width="1"></path>
  <path d="m18.5 0.501 0 5" fill="none" stroke="#000000" stroke-linecap="round" stroke-linejoin="round" stroke-width="1"></path>
  <path d="m0.5 7.501 23 0" fill="none" stroke="#000000" stroke-linecap="round" stroke-linejoin="round" stroke-width="1"></path>
  <path d="m12 7.501 0 16" fill="none" stroke="#000000" stroke-linecap="round" stroke-linejoin="round" stroke-width="1"></path>
  <path d="m6 7.501 0 16" fill="none" stroke="#000000" stroke-linecap="round" stroke-linejoin="round" stroke-width="1"></path>
  <path d="m18 7.501 0 16" fill="none" stroke="#000000" stroke-linecap="round" stroke-linejoin="round" stroke-width="1"></path>
  <path d="m0.5 15.501 23 0" fill="none" stroke="#000000" stroke-linecap="round" stroke-linejoin="round" stroke-width="1"></path>
  <path d="m0.5 11.501 23 0" fill="none" stroke="#000000" stroke-linecap="round" stroke-linejoin="round" stroke-width="1"></path>
  <path d="m0.5 19.501 23 0" fill="none" stroke="#000000" stroke-linecap="round" stroke-linejoin="round" stroke-width="1"></path>
</svg>