<svg xmlns="http://www.w3.org/2000/svg" fill="none" viewBox="0 0 24 24" id="App-Window-Clock--Streamline-Ultimate" height="24" width="24">
  <desc>
    App Window Clock Streamline Icon: https://streamlinehq.com
  </desc>
  <path stroke="#000000" stroke-linecap="round" stroke-linejoin="round" d="M0.518 4.50391h20" stroke-width="1"></path>
  <path stroke="#000000" stroke-linecap="round" stroke-linejoin="round" d="M8.518 16.5h-6c-0.53043 0 -1.03914 -0.2107 -1.41421 -0.5858C0.728713 15.5391 0.518 15.0304 0.518 14.5v-12c0 -0.53043 0.210713 -1.03914 0.58579 -1.41421C1.47886 0.710714 1.98757 0.5 2.518 0.5h16c0.5304 0 1.0391 0.210714 1.4142 0.58579 0.3751 0.37507 0.5858 0.88378 0.5858 1.41421V10" stroke-width="1"></path>
  <path stroke="#000000" stroke-linecap="round" stroke-linejoin="round" d="M17.5 23.5c3.3137 0 6 -2.6863 6 -6s-2.6863 -6 -6 -6 -6 2.6863 -6 6 2.6863 6 6 6" stroke-width="1"></path>
  <path stroke="#000000" stroke-linecap="round" stroke-linejoin="round" d="M19.5 17.5h-2v-3" stroke-width="1"></path>
  <path stroke="#000000" d="M3.518 2.75391c-0.13807 0 -0.25 -0.11193 -0.25 -0.25s0.11193 -0.25 0.25 -0.25" stroke-width="1"></path>
  <path stroke="#000000" d="M3.518 2.75391c0.13807 0 0.25 -0.11193 0.25 -0.25s-0.11193 -0.25 -0.25 -0.25" stroke-width="1"></path>
  <g>
    <path stroke="#000000" d="M5.518 2.75391c-0.13807 0 -0.25 -0.11193 -0.25 -0.25s0.11193 -0.25 0.25 -0.25" stroke-width="1"></path>
    <path stroke="#000000" d="M5.518 2.75391c0.13807 0 0.25 -0.11193 0.25 -0.25s-0.11193 -0.25 -0.25 -0.25" stroke-width="1"></path>
  </g>
  <g>
    <path stroke="#000000" d="M7.518 2.75391c-0.13807 0 -0.25 -0.11193 -0.25 -0.25s0.11193 -0.25 0.25 -0.25" stroke-width="1"></path>
    <path stroke="#000000" d="M7.518 2.75391c0.13807 0 0.25 -0.11193 0.25 -0.25s-0.11193 -0.25 -0.25 -0.25" stroke-width="1"></path>
  </g>
</svg>