<svg xmlns="http://www.w3.org/2000/svg" fill="none" viewBox="0 0 24 24" id="App-Window-Text-1--Streamline-Ultimate" height="24" width="24">
  <desc>
    App Window Text 1 Streamline Icon: https://streamlinehq.com
  </desc>
  <path stroke="#000000" stroke-linecap="round" stroke-linejoin="round" d="M18.5 10.5039h-9" stroke-width="1"></path>
  <path stroke="#000000" stroke-linecap="round" stroke-linejoin="round" d="M5.5 10.5039h1" stroke-width="1"></path>
  <path stroke="#000000" stroke-linecap="round" stroke-linejoin="round" d="M18.5 13.5039h-9" stroke-width="1"></path>
  <path stroke="#000000" stroke-linecap="round" stroke-linejoin="round" d="M5.5 13.5039h1" stroke-width="1"></path>
  <path stroke="#000000" stroke-linecap="round" stroke-linejoin="round" d="M18.5 16.5039h-9" stroke-width="1"></path>
  <path stroke="#000000" stroke-linecap="round" stroke-linejoin="round" d="M5.5 16.5039h1" stroke-width="1"></path>
  <path stroke="#000000" stroke-linecap="round" stroke-linejoin="round" d="M22.5 2.50391h-21c-0.552285 0 -1 0.44771 -1 1V20.5039c0 0.5523 0.447715 1 1 1h21c0.5523 0 1 -0.4477 1 -1V3.50391c0 -0.55229 -0.4477 -1 -1 -1" stroke-width="1"></path>
  <path stroke="#000000" stroke-linecap="round" stroke-linejoin="round" d="M0.5 7.50391h23" stroke-width="1"></path>
  <path stroke="#000000" d="M14 5.25391c-0.1381 0 -0.25 -0.11193 -0.25 -0.25s0.1119 -0.25 0.25 -0.25" stroke-width="1"></path>
  <path stroke="#000000" d="M14 5.25391c0.1381 0 0.25 -0.11193 0.25 -0.25s-0.1119 -0.25 -0.25 -0.25" stroke-width="1"></path>
  <path stroke="#000000" d="M17 5.25391c-0.1381 0 -0.25 -0.11193 -0.25 -0.25s0.1119 -0.25 0.25 -0.25" stroke-width="1"></path>
  <path stroke="#000000" d="M17 5.25391c0.1381 0 0.25 -0.11193 0.25 -0.25s-0.1119 -0.25 -0.25 -0.25" stroke-width="1"></path>
  <g>
    <path stroke="#000000" d="M20 5.25391c-0.1381 0 -0.25 -0.11193 -0.25 -0.25s0.1119 -0.25 0.25 -0.25" stroke-width="1"></path>
    <path stroke="#000000" d="M20 5.25391c0.1381 0 0.25 -0.11193 0.25 -0.25s-0.1119 -0.25 -0.25 -0.25" stroke-width="1"></path>
  </g>
</svg>