<svg xmlns="http://www.w3.org/2000/svg" viewBox="0 0 24 24" id="App-Window-Multiple--Streamline-Ultimate" height="24" width="24">
  <desc>
    App Window Multiple Streamline Icon: https://streamlinehq.com
  </desc>
  <title>app-window-multiple</title>
  <path d="m0.5 7.004 19 0" fill="none" stroke="#000000" stroke-linecap="round" stroke-linejoin="round" stroke-width="1"></path>
  <path d="M3.5 4.754" fill="none" stroke="#000000" stroke-linecap="round" stroke-linejoin="round" stroke-width="1"></path>
  <path d="M3.5 4.754A0.25 0.25 0 1 0 3.75 5a0.25 0.25 0 0 0 -0.25 -0.25" fill="none" stroke="#000000" stroke-linecap="round" stroke-linejoin="round" stroke-width="1"></path>
  <path d="M5.5 4.754" fill="none" stroke="#000000" stroke-linecap="round" stroke-linejoin="round" stroke-width="1"></path>
  <path d="M5.5 4.754A0.25 0.25 0 1 0 5.75 5a0.25 0.25 0 0 0 -0.25 -0.25" fill="none" stroke="#000000" stroke-linecap="round" stroke-linejoin="round" stroke-width="1"></path>
  <path d="M7.5 4.754" fill="none" stroke="#000000" stroke-linecap="round" stroke-linejoin="round" stroke-width="1"></path>
  <path d="M7.5 4.754A0.25 0.25 0 1 0 7.75 5a0.25 0.25 0 0 0 -0.25 -0.25" fill="none" stroke="#000000" stroke-linecap="round" stroke-linejoin="round" stroke-width="1"></path>
  <path d="M2.5 3.004h15s2 0 2 2v10s0 2 -2 2h-15s-2 0 -2 -2v-10s0 -2 2 -2" fill="none" stroke="#000000" stroke-linecap="round" stroke-linejoin="round" stroke-width="1"></path>
  <path d="M19.5 5a2 2 0 0 1 2 2v10a2 2 0 0 1 -2 2h-15a2 2 0 0 1 -2 -2" fill="none" stroke="#000000" stroke-linecap="round" stroke-linejoin="round" stroke-width="1"></path>
  <path d="M21.5 7a2 2 0 0 1 2 2v10a2 2 0 0 1 -2 2h-15a2 2 0 0 1 -2 -2" fill="none" stroke="#000000" stroke-linecap="round" stroke-linejoin="round" stroke-width="1"></path>
</svg>