<svg viewBox="0 0 24 24" xmlns="http://www.w3.org/2000/svg" id="Book-Book-Pages--Streamline-Ultimate" height="24" width="24">
  <desc>
    Book Book Pages Streamline Icon: https://streamlinehq.com
  </desc>
  <path d="m4.435 0.913 8.936 3.573a1 1 0 0 1 0.629 0.928v16.848a1 1 0 0 1 -1.371 0.927l-8 -3.2A1 1 0 0 1 4 19.062V1.739a1 1 0 0 1 1 -1h14a1 1 0 0 1 1 1v17a1 1 0 0 1 -1 1h-2" fill="none" stroke="#000000" stroke-linecap="round" stroke-linejoin="round" stroke-width="1"></path>
  <path d="m4.552 0.845 11.636 2.237a1 1 0 0 1 0.812 0.982v16.675a1 1 0 0 1 -1 1h-2" fill="none" stroke="#000000" stroke-linecap="round" stroke-linejoin="round" stroke-width="1"></path>
</svg>