<svg viewBox="0 0 24 24" xmlns="http://www.w3.org/2000/svg" id="Book-Star--Streamline-Ultimate" height="24" width="24">
  <desc>
    Book Star Streamline Icon: https://streamlinehq.com
  </desc>
  <path d="M5.5 2.5h11a1 1 0 0 1 1 1v1" fill="none" stroke="#000000" stroke-linecap="round" stroke-linejoin="round" stroke-width="1"></path>
  <path d="M19.5 4.5v-3a1 1 0 0 0 -1 -1h-13a2 2 0 0 0 0 4za1 1 0 0 1 1 1v17a1 1 0 0 1 -1 1h-14a2 2 0 0 1 -2 -2v-19" fill="none" stroke="#000000" stroke-linecap="round" stroke-linejoin="round" stroke-width="1"></path>
  <path d="m12.7 7.93 1.539 3.57h2.995a0.735 0.735 0 0 1 0.517 1.283l-2.6 2.316 1.44 3.313a0.785 0.785 0 0 1 -1.117 0.982L12 17.433l-3.48 1.961a0.785 0.785 0 0 1 -1.12 -0.982L8.841 15.1l-2.6 -2.315a0.735 0.735 0 0 1 0.515 -1.285h2.995l1.541 -3.57a0.8 0.8 0 0 1 1.408 0" fill="none" stroke="#000000" stroke-linecap="round" stroke-linejoin="round" stroke-width="1"></path>
</svg>