<svg xmlns="http://www.w3.org/2000/svg" fill="none" viewBox="0 0 24 24" id="Browser-Page-Layout--Streamline-Ultimate" height="24" width="24">
  <desc>
    Browser Page Layout Streamline Icon: https://streamlinehq.com
  </desc>
  <path stroke="#000000" stroke-linecap="round" stroke-linejoin="round" d="M21.5 2h-19c-1.10457 0 -2 0.89543 -2 2v16c0 1.1046 0.89543 2 2 2h19c1.1046 0 2 -0.8954 2 -2V4c0 -1.10457 -0.8954 -2 -2 -2" stroke-width="1"></path>
  <path stroke="#000000" stroke-linecap="round" stroke-linejoin="round" d="M0.5 7h23" stroke-width="1"></path>
  <path stroke="#000000" stroke-linecap="round" stroke-linejoin="round" d="M6.5 7v15" stroke-width="1"></path>
  <path stroke="#000000" stroke-linecap="round" stroke-linejoin="round" d="M6.5 14h17" stroke-width="1"></path>
  <path stroke="#000000" d="M4 4.75c-0.13807 0 -0.25 -0.11193 -0.25 -0.25s0.11193 -0.25 0.25 -0.25" stroke-width="1"></path>
  <path stroke="#000000" d="M4 4.75c0.13807 0 0.25 -0.11193 0.25 -0.25s-0.11193 -0.25 -0.25 -0.25" stroke-width="1"></path>
  <path stroke="#000000" d="M7 4.75c-0.13807 0 -0.25 -0.11193 -0.25 -0.25s0.11193 -0.25 0.25 -0.25" stroke-width="1"></path>
  <path stroke="#000000" d="M7 4.75c0.13807 0 0.25 -0.11193 0.25 -0.25s-0.11193 -0.25 -0.25 -0.25" stroke-width="1"></path>
  <g>
    <path stroke="#000000" d="M10 4.75c-0.13807 0 -0.25 -0.11193 -0.25 -0.25s0.11193 -0.25 0.25 -0.25" stroke-width="1"></path>
    <path stroke="#000000" d="M10 4.75c0.1381 0 0.25 -0.11193 0.25 -0.25s-0.1119 -0.25 -0.25 -0.25" stroke-width="1"></path>
  </g>
</svg>