<svg viewBox="0 0 24 24" xmlns="http://www.w3.org/2000/svg" id="Button-Fast-Forward-1--Streamline-Ultimate" height="24" width="24">
  <desc>
    Button Fast Forward 1 Streamline Icon: https://streamlinehq.com
  </desc>
  <path d="M0.5 11.999a11.5 11.5 0 1 0 23 0 11.5 11.5 0 1 0 -23 0" fill="none" stroke="#000000" stroke-linecap="round" stroke-linejoin="round" stroke-width="1"></path>
  <path d="M18.027 12.386a0.5 0.5 0 0 0 0 -0.774l-4.21 -3.445a0.5 0.5 0 0 0 -0.817 0.387V10.5L9.277 8.017a0.5 0.5 0 0 0 -0.777 0.416v7.132a0.5 0.5 0 0 0 0.777 0.416L13 13.5v1.945a0.5 0.5 0 0 0 0.817 0.387Z" fill="none" stroke="#000000" stroke-linecap="round" stroke-linejoin="round" stroke-width="1"></path>
</svg>