<svg xmlns="http://www.w3.org/2000/svg" viewBox="0 0 24 24" id="Color-Bucket-Brush--Streamline-Ultimate" height="24" width="24">
  <desc>
    Color Bucket Brush Streamline Icon: https://streamlinehq.com
  </desc>
  <g>
    <path d="m2.6 14.15 -2 6.76a2 2 0 1 0 3.86 1.15l2 -6.76a5 5 0 0 0 4.22 -3.56l0.12 -0.41 -9.66 -2.87 -0.14 0.41a5 5 0 0 0 1.6 5.28" fill="none" stroke="#000000" stroke-linecap="round" stroke-linejoin="round" stroke-width="1"></path>
    <path d="M13 4.09a1 1 0 0 0 -0.68 -1.25L4.55 0.54a1 1 0 0 0 -1.25 0.68L1.14 8.46l9.66 2.87Z" fill="none" stroke="#000000" stroke-linecap="round" stroke-linejoin="round" stroke-width="1"></path>
    <path d="m1.72 6.53 9.65 2.87" fill="none" stroke="#000000" stroke-linecap="round" stroke-linejoin="round" stroke-width="1"></path>
    <path d="M6.48 1.12 5.47 4.5" fill="none" stroke="#000000" stroke-linecap="round" stroke-linejoin="round" stroke-width="1"></path>
    <path d="m10.34 2.26 -1 3.38" fill="none" stroke="#000000" stroke-linecap="round" stroke-linejoin="round" stroke-width="1"></path>
    <path d="m2.52 21.48 0.29 -0.96" fill="none" stroke="#000000" stroke-linecap="round" stroke-linejoin="round" stroke-width="1"></path>
    <path d="M13.47 9.9A14.89 14.89 0 0 1 17 9.5c3.59 0 6.5 1.12 6.5 2.5s-2.91 2.5 -6.5 2.5a13.35 13.35 0 0 1 -4.6 -0.73" fill="none" stroke="#000000" stroke-linecap="round" stroke-linejoin="round" stroke-width="1"></path>
    <path d="M10.49 16v5c0 1.38 2.91 2.5 6.5 2.5s6.5 -1.12 6.5 -2.5v-9" fill="none" stroke="#000000" stroke-linecap="round" stroke-linejoin="round" stroke-width="1"></path>
    <path d="M14.49 14.31V18a1 1 0 1 0 2 0 1 1 0 0 1 2 0 1.5 1.5 0 0 0 3 0v-4.2" fill="none" stroke="#000000" stroke-linecap="round" stroke-linejoin="round" stroke-width="1"></path>
  </g>
</svg>