<svg viewBox="0 0 24 24" xmlns="http://www.w3.org/2000/svg" id="Color-Picker-2--Streamline-Ultimate" height="24" width="24">
  <desc>
    Color Picker 2 Streamline Icon: https://streamlinehq.com
  </desc>
  <path d="M22.182 8.182a4.5 4.5 0 1 0 -6.364 -6.364L12.636 5 19 11.364Z" fill="none" stroke="#000000" stroke-linecap="round" stroke-linejoin="round" stroke-width="1"></path>
  <path d="m11.222 3.586 9.192 9.192" fill="none" stroke="#000000" stroke-linecap="round" stroke-linejoin="round" stroke-width="1"></path>
  <path d="m12.636 5 -8.83 8.83a4.489 4.489 0 0 0 -0.866 5.109l-2 2a1.5 1.5 0 0 0 2.122 2.122l2 -2a4.489 4.489 0 0 0 5.109 -0.866L19 11.364Z" fill="none" stroke="#000000" stroke-linecap="round" stroke-linejoin="round" stroke-width="1"></path>
  <path d="M9.568 8.068 11.5 10" fill="none" stroke="#000000" stroke-linecap="round" stroke-linejoin="round" stroke-width="1"></path>
  <path d="M7.568 10.068 9.5 12" fill="none" stroke="#000000" stroke-linecap="round" stroke-linejoin="round" stroke-width="1"></path>
  <path d="M5.568 12.068 7.5 14" fill="none" stroke="#000000" stroke-linecap="round" stroke-linejoin="round" stroke-width="1"></path>
</svg>