<svg xmlns="http://www.w3.org/2000/svg" viewBox="0 0 24 24" id="Common-File-Stack--Streamline-Ultimate" height="24" width="24">
  <desc>
    Common File Stack Streamline Icon: https://streamlinehq.com
  </desc>
  <g>
    <path d="M8 0.5h9.59a1 1 0 0 1 0.7 0.29l2.42 2.42a1 1 0 0 1 0.29 0.7V18.5a1 1 0 0 1 -1 1H8a1 1 0 0 1 -1 -1v-17a1 1 0 0 1 1 -1" fill="none" stroke="#000000" stroke-linecap="round" stroke-linejoin="round" stroke-width="1"></path>
    <path d="M18 21.5H6a1 1 0 0 1 -1 -1v-17" fill="none" stroke="#000000" stroke-linecap="round" stroke-linejoin="round" stroke-width="1"></path>
    <path d="M16 23.5H4a1 1 0 0 1 -1 -1v-17" fill="none" stroke="#000000" stroke-linecap="round" stroke-linejoin="round" stroke-width="1"></path>
  </g>
</svg>