<svg xmlns="http://www.w3.org/2000/svg" viewBox="0 0 24 24" id="Design-Tool-Pencil-Ruler--Streamline-Ultimate" height="24" width="24">
  <desc>
    Design Tool Pencil Ruler Streamline Icon: https://streamlinehq.com
  </desc>
  <title>design-tool-pencil-ruler</title>
  <path d="M9.5 21.5a2 2 0 0 1 -4 0V8l1.8 -4.043c0.112 -0.251 0.294 -0.251 0.406 0L9.5 8Z" fill="none" stroke="#000000" stroke-linecap="round" stroke-linejoin="round" stroke-width="1"></path>
  <path d="m5.5 20.5 4 0" fill="none" stroke="#000000" stroke-linecap="round" stroke-linejoin="round" stroke-width="1"></path>
  <path d="m5.5 18.5 4 0" fill="none" stroke="#000000" stroke-linecap="round" stroke-linejoin="round" stroke-width="1"></path>
  <path d="M13.5 0.5h4s1 0 1 1v21s0 1 -1 1h-4s-1 0 -1 -1v-21s0 -1 1 -1" fill="none" stroke="#000000" stroke-linecap="round" stroke-linejoin="round" stroke-width="1"></path>
  <path d="m12.5 3.5 2 0" fill="none" stroke="#000000" stroke-linecap="round" stroke-linejoin="round" stroke-width="1"></path>
  <path d="m12.5 7.5 2 0" fill="none" stroke="#000000" stroke-linecap="round" stroke-linejoin="round" stroke-width="1"></path>
  <path d="m12.5 11.5 2 0" fill="none" stroke="#000000" stroke-linecap="round" stroke-linejoin="round" stroke-width="1"></path>
  <path d="m12.5 15.5 2 0" fill="none" stroke="#000000" stroke-linecap="round" stroke-linejoin="round" stroke-width="1"></path>
  <path d="m12.5 19.5 2 0" fill="none" stroke="#000000" stroke-linecap="round" stroke-linejoin="round" stroke-width="1"></path>
  <path d="m5.722 7.5 3.556 0" fill="none" stroke="#000000" stroke-linecap="round" stroke-linejoin="round" stroke-width="1"></path>
  <path d="m7.5 7.5 0 11" fill="none" stroke="#000000" stroke-linecap="round" stroke-linejoin="round" stroke-width="1"></path>
</svg>