<svg xmlns="http://www.w3.org/2000/svg" viewBox="0 0 24 24" id="Desktop-Monitor-Smiley--Streamline-Ultimate" height="24" width="24">
  <desc>
    Desktop Monitor Smiley Streamline Icon: https://streamlinehq.com
  </desc>
  <title>desktop-monitor-smiley</title>
  <path d="M9 22.5a6.979 6.979 0 0 0 1.5 -4" fill="none" stroke="#000000" stroke-linecap="round" stroke-linejoin="round" stroke-width="1"></path>
  <path d="M15 22.5a6.979 6.979 0 0 1 -1.5 -4" fill="none" stroke="#000000" stroke-linecap="round" stroke-linejoin="round" stroke-width="1"></path>
  <path d="m7.499 22.5 9 0" fill="none" stroke="#000000" stroke-linecap="round" stroke-linejoin="round" stroke-width="1"></path>
  <path d="m0.5 15.5 23 0" fill="none" stroke="#000000" stroke-linecap="round" stroke-linejoin="round" stroke-width="1"></path>
  <path d="M1.5 1.5h21s1 0 1 1v15s0 1 -1 1h-21s-1 0 -1 -1v-15s0 -1 1 -1" fill="none" stroke="#000000" stroke-linecap="round" stroke-linejoin="round" stroke-width="1"></path>
  <path d="m9.499 6.5 0 2" fill="none" stroke="#000000" stroke-linecap="round" stroke-linejoin="round" stroke-width="1"></path>
  <path d="m14.499 6.5 0 2" fill="none" stroke="#000000" stroke-linecap="round" stroke-linejoin="round" stroke-width="1"></path>
  <path d="M16 11a6.083 6.083 0 0 1 -8 0" fill="none" stroke="#000000" stroke-linecap="round" stroke-linejoin="round" stroke-width="1"></path>
</svg>