<svg viewBox="0 0 24 24" xmlns="http://www.w3.org/2000/svg" id="Direction-Button-3--Streamline-Ultimate" height="24" width="24">
  <desc>
    Direction Button 3 Streamline Icon: https://streamlinehq.com
  </desc>
  <path d="M14.5 1.5a1 1 0 0 0 -1 -1h-3a1 1 0 0 0 -1 1v5.584a1 1 0 0 0 0.293 0.707l1.5 1.5a1 1 0 0 0 1.414 0l1.5 -1.5a1 1 0 0 0 0.293 -0.707z" fill="none" stroke="#000000" stroke-linecap="round" stroke-linejoin="round" stroke-width="1"></path>
  <path d="M22.5 14.5a1 1 0 0 0 1 -1v-3a1 1 0 0 0 -1 -1h-5.586a1 1 0 0 0 -0.707 0.293l-1.5 1.5a1 1 0 0 0 0 1.414l1.5 1.5a1 1 0 0 0 0.707 0.293Z" fill="none" stroke="#000000" stroke-linecap="round" stroke-linejoin="round" stroke-width="1"></path>
  <path d="M9.5 22.5a1 1 0 0 0 1 1h3a1 1 0 0 0 1 -1v-5.588a1 1 0 0 0 -0.293 -0.707l-1.5 -1.5a1 1 0 0 0 -1.414 0l-1.5 1.5a1 1 0 0 0 -0.293 0.707z" fill="none" stroke="#000000" stroke-linecap="round" stroke-linejoin="round" stroke-width="1"></path>
  <path d="M1.5 9.5a1 1 0 0 0 -1 1v3a1 1 0 0 0 1 1h6.072a1 1 0 0 0 0.79 -0.387l1.1 -1.416a1 1 0 0 0 -0.083 -1.32L7.792 9.791a1 1 0 0 0 -0.707 -0.291Z" fill="none" stroke="#000000" stroke-linecap="round" stroke-linejoin="round" stroke-width="1"></path>
</svg>