<svg viewBox="0 0 24 24" xmlns="http://www.w3.org/2000/svg" id="Direction-Button-2--Streamline-Ultimate" height="24" width="24">
  <desc>
    Direction Button 2 Streamline Icon: https://streamlinehq.com
  </desc>
  <path d="M10 11.998a2 2 0 1 0 4 0 2 2 0 1 0 -4 0" fill="none" stroke="#000000" stroke-linecap="round" stroke-linejoin="round" stroke-width="1"></path>
  <path d="M18.5 15.5a0.5 0.5 0 0 0 0.835 0.372l4 -3.5a0.5 0.5 0 0 0 0 -0.744l-4 -3.5a0.5 0.5 0 0 0 -0.835 0.372Z" fill="none" stroke="#000000" stroke-linecap="round" stroke-linejoin="round" stroke-width="1"></path>
  <path d="M5.5 8.5a0.5 0.5 0 0 0 -0.835 -0.372l-4 3.5a0.5 0.5 0 0 0 0 0.744l4 3.5A0.5 0.5 0 0 0 5.5 15.5Z" fill="none" stroke="#000000" stroke-linecap="round" stroke-linejoin="round" stroke-width="1"></path>
  <path d="M15.5 5.5a0.5 0.5 0 0 0 0.372 -0.835l-3.5 -4a0.5 0.5 0 0 0 -0.744 0l-3.5 4A0.5 0.5 0 0 0 8.5 5.5Z" fill="none" stroke="#000000" stroke-linecap="round" stroke-linejoin="round" stroke-width="1"></path>
  <path d="M8.5 18.5a0.5 0.5 0 0 0 -0.372 0.835l3.5 4a0.5 0.5 0 0 0 0.744 0l3.5 -4a0.5 0.5 0 0 0 -0.372 -0.835Z" fill="none" stroke="#000000" stroke-linecap="round" stroke-linejoin="round" stroke-width="1"></path>
</svg>