<svg viewBox="0 0 24 24" xmlns="http://www.w3.org/2000/svg" id="File-Html--Streamline-Ultimate" height="24" width="24">
  <desc>
    File Html Streamline Icon: https://streamlinehq.com
  </desc>
  <path d="M19.5 9.5V6.478A5.975 5.975 0 0 0 13.525 0.5H1.5a1 1 0 0 0 -1 1v21a1 1 0 0 0 1 1h17a1 1 0 0 0 1 -1v-1" fill="none" stroke="#000000" stroke-linecap="round" stroke-linejoin="round" stroke-width="1"></path>
  <path d="M14.5 0.584V4.5a1 1 0 0 0 1 1h3.92" fill="none" stroke="#000000" stroke-linecap="round" stroke-linejoin="round" stroke-width="1"></path>
  <path d="m7.5 12.504 0 6" fill="none" stroke="#000000" stroke-linecap="round" stroke-linejoin="round" stroke-width="1"></path>
  <path d="m4.5 18.504 0 -6" fill="none" stroke="#000000" stroke-linecap="round" stroke-linejoin="round" stroke-width="1"></path>
  <path d="m4.5 15.504 3 0" fill="none" stroke="#000000" stroke-linecap="round" stroke-linejoin="round" stroke-width="1"></path>
  <path d="m9.5 12.504 4 0" fill="none" stroke="#000000" stroke-linecap="round" stroke-linejoin="round" stroke-width="1"></path>
  <path d="m11.5 12.504 0 6" fill="none" stroke="#000000" stroke-linecap="round" stroke-linejoin="round" stroke-width="1"></path>
  <path d="m15.5 18.504 0 -6 1.5 3 1.5 -3 0 6" fill="none" stroke="#000000" stroke-linecap="round" stroke-linejoin="round" stroke-width="1"></path>
  <path d="M20.5 12.5v5a1 1 0 0 0 1 1h2" fill="none" stroke="#000000" stroke-linecap="round" stroke-linejoin="round" stroke-width="1"></path>
</svg>