<svg xmlns="http://www.w3.org/2000/svg" fill="none" viewBox="0 0 24 24" id="Floppy-Disk-1--Streamline-Ultimate" height="24" width="24">
  <desc>
    Floppy Disk 1 Streamline Icon: https://streamlinehq.com
  </desc>
  <path stroke="#000000" stroke-linecap="round" stroke-linejoin="round" d="M23.5 1.5c0 -0.26522 -0.1054 -0.51957 -0.2929 -0.707107C23.0196 0.605357 22.7652 0.5 22.5 0.5H3.914c-0.26519 0.000057 -0.51951 0.105451 -0.707 0.293L0.793 3.207c-0.187549 0.18749 -0.292943 0.44181 -0.293 0.707V22.5c0 0.2652 0.105357 0.5196 0.292893 0.7071 0.187537 0.1875 0.441887 0.2929 0.707107 0.2929h21c0.2652 0 0.5196 -0.1054 0.7071 -0.2929s0.2929 -0.4419 0.2929 -0.7071z" stroke-width="1"></path>
  <path stroke="#000000" stroke-linecap="round" stroke-linejoin="round" d="M19.5 0.5h-15v5h15z" stroke-width="1"></path>
  <path stroke="#000000" stroke-linecap="round" stroke-linejoin="round" d="M19.5 20.5h-15v3h15z" stroke-width="1"></path>
  <path stroke="#000000" stroke-linecap="round" stroke-linejoin="round" d="M12 15.5c2.2091 0 4 -1.7909 4 -4 0 -2.20914 -1.7909 -4 -4 -4 -2.20914 0 -4 1.79086 -4 4 0 2.2091 1.79086 4 4 4" stroke-width="1"></path>
  <path stroke="#000000" stroke-linecap="round" stroke-linejoin="round" d="M14.5 18.5h5" stroke-width="1"></path>
  <path stroke="#000000" stroke-linecap="round" stroke-linejoin="round" d="M10 10.5v2" stroke-width="1"></path>
  <path stroke="#000000" d="M12 11.75c-0.1381 0 -0.25 -0.1119 -0.25 -0.25s0.1119 -0.25 0.25 -0.25" stroke-width="1"></path>
  <path stroke="#000000" d="M12 11.75c0.1381 0 0.25 -0.1119 0.25 -0.25s-0.1119 -0.25 -0.25 -0.25" stroke-width="1"></path>
  <path stroke="#000000" stroke-linecap="round" stroke-linejoin="round" d="M12 11.25c0.0494 0 0.0978 0.0147 0.1389 0.0421 0.0411 0.0275 0.0731 0.0665 0.0921 0.1122 0.0189 0.0457 0.0238 0.096 0.0142 0.1445s-0.0335 0.093 -0.0684 0.128c-0.035 0.0349 -0.0795 0.0588 -0.128 0.0684s-0.0988 0.0047 -0.1445 -0.0142c-0.0457 -0.019 -0.0847 -0.051 -0.1122 -0.0921 -0.0274 -0.0411 -0.0421 -0.0895 -0.0421 -0.1389 0 -0.0663 0.0263 -0.1299 0.0732 -0.1768s0.1105 -0.0732 0.1768 -0.0732" stroke-width="1"></path>
</svg>