<svg viewBox="0 0 24 24" xmlns="http://www.w3.org/2000/svg" id="Hand-Drag--Streamline-Ultimate" height="24" width="24">
  <desc>
    Hand Drag Streamline Icon: https://streamlinehq.com
  </desc>
  <path d="M7.5 15.5v-9a1.5 1.5 0 0 1 3 0v5" fill="none" stroke="#000000" stroke-linecap="round" stroke-linejoin="round" stroke-width="1"></path>
  <path d="M10.5 6.5v-1a1.5 1.5 0 0 1 3 0v1" fill="none" stroke="#000000" stroke-linecap="round" stroke-linejoin="round" stroke-width="1"></path>
  <path d="M13.5 11.5v-5a1.5 1.5 0 0 1 3 0v2" fill="none" stroke="#000000" stroke-linecap="round" stroke-linejoin="round" stroke-width="1"></path>
  <path d="M16.5 12.5v-4a1.5 1.5 0 0 1 3 0v9a5 5 0 0 1 -5 5h-3.335c-3.665 0 -6.665 -4 -6.665 -6v-4A1.5 1.5 0 0 1 6 11h1.5" fill="none" stroke="#000000" stroke-linecap="round" stroke-linejoin="round" stroke-width="1"></path>
</svg>