<svg viewBox="0 0 24 24" xmlns="http://www.w3.org/2000/svg" id="House-4--Streamline-Ultimate" height="24" width="24">
  <desc>
    House 4 Streamline Icon: https://streamlinehq.com
  </desc>
  <path d="m1.5 9 9.871 -7.991a1 1 0 0 1 1.258 0L22.5 9" fill="none" stroke="#000000" stroke-linecap="round" stroke-linejoin="round" stroke-width="1"></path>
  <path d="m11.363 5.026 -8.478 7a1.211 1.211 0 0 0 -0.385 0.819V22.5a1 1 0 0 0 1 1h6V16a0.5 0.5 0 0 1 0.5 -0.5h4a0.5 0.5 0 0 1 0.5 0.5v7.5h6a1 1 0 0 0 1 -1v-9.652a1.211 1.211 0 0 0 -0.385 -0.819l-8.478 -7a1 1 0 0 0 -1.274 -0.003" fill="none" stroke="#000000" stroke-linecap="round" stroke-linejoin="round" stroke-width="1"></path>
</svg>