<svg viewBox="0 0 24 24" xmlns="http://www.w3.org/2000/svg" id="Image-File-Eps--Streamline-Ultimate" height="24" width="24">
  <desc>
    Image File Eps Streamline Icon: https://streamlinehq.com
  </desc>
  <path d="M20.5 23.5a1 1 0 0 0 1 -1V6.475A5.975 5.975 0 0 0 15.525 0.5H3.5a1 1 0 0 0 -1 1v21a1 1 0 0 0 1 1Z" fill="none" stroke="#000000" stroke-linecap="round" stroke-linejoin="round" stroke-width="1"></path>
  <path d="M16.5 0.58V4.5a1 1 0 0 0 1 1h3.92" fill="none" stroke="#000000" stroke-linecap="round" stroke-linejoin="round" stroke-width="1"></path>
  <path d="M8.5 18.5h-2a1 1 0 0 1 -1 -1v-4a1 1 0 0 1 1 -1h2" fill="none" stroke="#000000" stroke-linecap="round" stroke-linejoin="round" stroke-width="1"></path>
  <path d="m5.5 15.5 2 0" fill="none" stroke="#000000" stroke-linecap="round" stroke-linejoin="round" stroke-width="1"></path>
  <path d="M13.5 14a1.5 1.5 0 0 1 -1.5 1.5h-1.5v-3H12a1.5 1.5 0 0 1 1.5 1.5" fill="none" stroke="#000000" stroke-linecap="round" stroke-linejoin="round" stroke-width="1"></path>
  <path d="m10.5 18.5 0 -3" fill="none" stroke="#000000" stroke-linecap="round" stroke-linejoin="round" stroke-width="1"></path>
  <path d="M18.5 12.5h-1.7a1.3 1.3 0 0 0 -0.723 2.387l1.84 1.226A1.3 1.3 0 0 1 17.2 18.5h-1.7" fill="none" stroke="#000000" stroke-linecap="round" stroke-linejoin="round" stroke-width="1"></path>
</svg>