<svg viewBox="0 0 24 24" xmlns="http://www.w3.org/2000/svg" id="Layers-Stacked--Streamline-Ultimate" height="24" width="24">
  <desc>
    Layers Stacked Streamline Icon: https://streamlinehq.com
  </desc>
  <path d="M12.2 11.413a0.5 0.5 0 0 1 -0.4 0L1.555 6.958a0.5 0.5 0 0 1 0 -0.917L11.8 1.586a0.5 0.5 0 0 1 0.4 0l10.245 4.455a0.5 0.5 0 0 1 0 0.917Z" fill="none" stroke="#000000" stroke-linecap="round" stroke-linejoin="round" stroke-width="1"></path>
  <path d="m17.175 9.25 5.27 2.292a0.5 0.5 0 0 1 0 0.917L12.2 16.914a0.5 0.5 0 0 1 -0.4 0L1.555 12.459a0.5 0.5 0 0 1 0 -0.917l5.27 -2.292" fill="none" stroke="#000000" stroke-linecap="round" stroke-linejoin="round" stroke-width="1"></path>
  <path d="m17.175 14.75 5.27 2.292a0.5 0.5 0 0 1 0 0.917L12.2 22.414a0.5 0.5 0 0 1 -0.4 0L1.555 17.959a0.5 0.5 0 0 1 0 -0.917l5.27 -2.292" fill="none" stroke="#000000" stroke-linecap="round" stroke-linejoin="round" stroke-width="1"></path>
</svg>