<svg viewBox="0 0 24 24" xmlns="http://www.w3.org/2000/svg" id="List-Numbers--Streamline-Ultimate" height="24" width="24">
  <desc>
    List Numbers Streamline Icon: https://streamlinehq.com
  </desc>
  <path d="m6.5 4.498 17 0" fill="none" stroke="#000000" stroke-linecap="round" stroke-linejoin="round" stroke-width="1"></path>
  <path d="m6.5 12.498 17 0" fill="none" stroke="#000000" stroke-linecap="round" stroke-linejoin="round" stroke-width="1"></path>
  <path d="m6.5 20.498 17 0" fill="none" stroke="#000000" stroke-linecap="round" stroke-linejoin="round" stroke-width="1"></path>
  <path d="M0.5 19.239a1 1 0 1 1 0.966 1.261A1 1 0 1 1 0.5 21.767" fill="none" stroke="#000000" stroke-linecap="round" stroke-linejoin="round" stroke-width="1"></path>
  <path d="M0.5 11.5a1 1 0 0 1 1 -1h0a1 1 0 0 1 1 1h0a1.428 1.428 0 0 1 -0.312 0.891L0.5 14.5h2" fill="none" stroke="#000000" stroke-linecap="round" stroke-linejoin="round" stroke-width="1"></path>
  <path d="M0.5 2.5H1a0.5 0.5 0 0 1 0.5 0.5v3.5" fill="none" stroke="#000000" stroke-linecap="round" stroke-linejoin="round" stroke-width="1"></path>
  <path d="m0.5 6.498 2 0" fill="none" stroke="#000000" stroke-linecap="round" stroke-linejoin="round" stroke-width="1"></path>
</svg>