<svg viewBox="0 0 24 24" xmlns="http://www.w3.org/2000/svg" id="Navigation-Menu-Horizontal-1--Streamline-Ultimate" height="24" width="24">
  <desc>
    Navigation Menu Horizontal 1 Streamline Icon: https://streamlinehq.com
  </desc>
  <path d="M5.75 12a1.25 1.25 0 1 0 2.5 0 1.25 1.25 0 1 0 -2.5 0" fill="none" stroke="#000000" stroke-linecap="round" stroke-linejoin="round" stroke-width="1"></path>
  <path d="M10.75 12a1.25 1.25 0 1 0 2.5 0 1.25 1.25 0 1 0 -2.5 0" fill="none" stroke="#000000" stroke-linecap="round" stroke-linejoin="round" stroke-width="1"></path>
  <path d="M15.75 12a1.25 1.25 0 1 0 2.5 0 1.25 1.25 0 1 0 -2.5 0" fill="none" stroke="#000000" stroke-linecap="round" stroke-linejoin="round" stroke-width="1"></path>
  <path d="M0.5 12a11.5 11.5 0 1 0 23 0 11.5 11.5 0 1 0 -23 0" fill="none" stroke="#000000" stroke-linecap="round" stroke-linejoin="round" stroke-width="1"></path>
</svg>