<svg xmlns="http://www.w3.org/2000/svg" fill="none" viewBox="0 0 24 24" id="Pathfinder-Minus-Back--Streamline-Ultimate" height="24" width="24">
  <desc>
    Pathfinder Minus Back Streamline Icon: https://streamlinehq.com
  </desc>
  <path stroke="#000000" stroke-linecap="round" stroke-linejoin="round" d="M21.8047 7.26562c0.5523 0 1 0.44773 1 1.00001l-0.0001 13.53877c0 0.5522 -0.4477 1 -1 1l-13.78776 0c-0.55228 0 -1 -0.4478 -1 -1l0 -5.2032c0 -0.5523 0.44772 -1 1 -1l6.58456 0c0.5523 0 1 -0.4477 1 -1l0.0001 -6.33559c0.0001 -0.55228 0.4478 -0.99999 1 -0.99999z" stroke-width="1"></path>
  <path stroke="#000000" stroke-linecap="round" stroke-linejoin="round" d="m15.6016 4.25549 0 -2.06018c0 -0.55228 -0.4478 -1 -1 -1l-1.4957 0m-3.29805 0 -2.81438 0m-3.29809 0 -1.50007 0c-0.55228 0 -1 0.44772 -1 1l0 1.53081m0 3.25411 0 2.85835m0 2.88152 0 1.8815c0 0.5522 0.44772 1 1 1l2.11572 0" stroke-width="1"></path>
</svg>