<svg viewBox="0 0 24 24" xmlns="http://www.w3.org/2000/svg" id="Reflect-Left--Streamline-Ultimate" height="24" width="24">
  <desc>
    Reflect Left Streamline Icon: https://streamlinehq.com
  </desc>
  <path d="m12 8.5 0 15" fill="none" stroke="#000000" stroke-linecap="round" stroke-linejoin="round" stroke-width="1"></path>
  <path d="M23 8.5V22c0 0.275 -0.159 0.341 -0.354 0.146l-6.292 -6.292a0.5 0.5 0 0 1 0 -0.708Z" fill="none" stroke="#000000" stroke-linecap="round" stroke-linejoin="round" stroke-width="1"></path>
  <path d="M1.354 8.854C1.159 8.659 1 8.725 1 9v13c0 0.275 0.159 0.341 0.354 0.146l6.292 -6.292a0.5 0.5 0 0 0 0 -0.708Z" fill="none" stroke="#000000" stroke-linecap="round" stroke-linejoin="round" stroke-width="1"></path>
  <path d="M18.5 6.5a6 6 0 0 0 -12 0" fill="none" stroke="#000000" stroke-linecap="round" stroke-linejoin="round" stroke-width="1"></path>
  <path d="m4.5 3.5 2 3 3 -2.5" fill="none" stroke="#000000" stroke-linecap="round" stroke-linejoin="round" stroke-width="1"></path>
</svg>