<svg viewBox="0 0 24 24" xmlns="http://www.w3.org/2000/svg" id="Scissors-2--Streamline-Ultimate" height="24" width="24">
  <desc>
    Scissors 2 Streamline Icon: https://streamlinehq.com
  </desc>
  <path d="M0.5 5.999a3.5 3.5 0 1 0 7 0 3.5 3.5 0 1 0 -7 0" fill="none" stroke="#000000" stroke-linecap="round" stroke-linejoin="round" stroke-width="1"></path>
  <path d="M11.148 10.731 23.5 18.086a2.214 2.214 0 0 1 -2.905 0.75L4.654 9.438" fill="none" stroke="#000000" stroke-linecap="round" stroke-linejoin="round" stroke-width="1"></path>
  <path d="M0.5 17.999a3.5 3.5 0 1 0 7 0 3.5 3.5 0 1 0 -7 0" fill="none" stroke="#000000" stroke-linecap="round" stroke-linejoin="round" stroke-width="1"></path>
  <path d="M13.279 12 23.5 5.913a2.213 2.213 0 0 0 -2.905 -0.75L4.654 14.56" fill="none" stroke="#000000" stroke-linecap="round" stroke-linejoin="round" stroke-width="1"></path>
</svg>