<svg xmlns="http://www.w3.org/2000/svg" viewBox="0 0 24 24" id="Shapes--Streamline-Ultimate" height="24" width="24">
  <desc>
    Shapes Streamline Icon: https://streamlinehq.com
  </desc>
  <title>shapes</title>
  <path d="M1.5 0.5h8s1 0 1 1v8s0 1 -1 1h-8s-1 0 -1 -1v-8s0 -1 1 -1" fill="none" stroke="#000000" stroke-linecap="round" stroke-linejoin="round" stroke-width="1"></path>
  <path d="M6.427 23.028a1.146 1.146 0 0 1 -1.854 0l-3.166 -4.354a1.143 1.143 0 0 1 0 -1.348l3.166 -4.354a1.146 1.146 0 0 1 1.854 0l3.166 4.354a1.143 1.143 0 0 1 0 1.348Z" fill="none" stroke="#000000" stroke-linecap="round" stroke-linejoin="round" stroke-width="1"></path>
  <path d="M13.5 5.5a5 5 0 1 0 10 0 5 5 0 1 0 -10 0" fill="none" stroke="#000000" stroke-linecap="round" stroke-linejoin="round" stroke-width="1"></path>
  <path d="M17.861 13.957a1 1 0 0 0 -1.722 0l-4.747 8.034a1 1 0 0 0 0.86 1.509h9.5a1 1 0 0 0 0.86 -1.509Z" fill="none" stroke="#000000" stroke-linecap="round" stroke-linejoin="round" stroke-width="1"></path>
</svg>