<?xml version="1.0" encoding="UTF-8" standalone="no"?>
<svg
   width="7.0745511mm"
   height="4.5531168mm"
   viewBox="0 0 26.738461 17.208631"
   version="1.1"
   id="svg1172"
   xml:space="preserve"
   xmlns="http://www.w3.org/2000/svg"
   xmlns:svg="http://www.w3.org/2000/svg"><defs
     id="defs820"><style
       id="style818">
      .icon-stroke {
        fill: none;
        stroke: #262626;
        stroke-width: 2;
        stroke-linecap: round;
        stroke-linejoin: round;
      }
      .icon-fill {
        fill: #262626;
        stroke: none;
      }
      .label {
        fill: #999;
        stroke: none;
        font-family: Arial, sans-serif;
        font-size: 10px;
        text-anchor: middle;
      }
    </style><style
       id="style818-7">
      .icon-stroke {
        fill: none;
        stroke: #262626;
        stroke-width: 2;
        stroke-linecap: round;
        stroke-linejoin: round;
      }
      .icon-fill {
        fill: #262626;
        stroke: none;
      }
      .label {
        fill: #999;
        stroke: none;
        font-family: Arial, sans-serif;
        font-size: 10px;
        text-anchor: middle;
      }
    </style></defs><g
     transform="translate(4.5665853,-3.9112693)"
     id="g5505"
     style="stroke:#262626;stroke-width:1;stroke-dasharray:none;stroke-opacity:1"><path
       id="path1096-6-56-9"
       d="m 9.9491542,6.6610969 c -3.2871198,-2.93972 -7.9644298,-3.05135 -11.3913698,-0.10158 -3.42695,2.94978 -3.54,8.8625301 0,11.8178201 3.53999,2.95529 8.21608,3.01601 11.3913698,0.10158 3.1752898,-2.91443 3.2871098,-8.8781001 0,-11.8178201 z m 0.7227208,4.8682001 a 1,1 0 0 0 -1,1 1,1 0 0 0 1,1 h 10 a 1,1 0 0 0 1,-1 1,1 0 0 0 -1,-1 z"
       style="fill:#262626;fill-opacity:1;stroke:#262626;stroke-width:1;stroke-dasharray:none;stroke-opacity:1" /></g></svg>
