<?xml version="1.0" encoding="UTF-8" standalone="no"?>
<svg
   width="5.0270834mm"
   height="4.4979167mm"
   viewBox="0 0 19 17"
   version="1.1"
   id="svg1172"
   xml:space="preserve"
   xmlns="http://www.w3.org/2000/svg"
   xmlns:svg="http://www.w3.org/2000/svg"><defs
     id="defs820"><style
       id="style818">
      .icon-stroke {
        fill: none;
        stroke: #262626;
        stroke-width: 2;
        stroke-linecap: round;
        stroke-linejoin: round;
      }
      .icon-fill {
        fill: #262626;
        stroke: none;
      }
      .label {
        fill: #999;
        stroke: none;
        font-family: Arial, sans-serif;
        font-size: 10px;
        text-anchor: middle;
      }
    </style><style
       id="style818-7">
      .icon-stroke {
        fill: none;
        stroke: #262626;
        stroke-width: 2;
        stroke-linecap: round;
        stroke-linejoin: round;
      }
      .icon-fill {
        fill: #262626;
        stroke: none;
      }
      .label {
        fill: #999;
        stroke: none;
        font-family: Arial, sans-serif;
        font-size: 10px;
        text-anchor: middle;
      }
    </style></defs><g
     transform="translate(-1.5,-5.5)"
     id="g7129"
     style="stroke:#262626;stroke-width:1;stroke-dasharray:none;stroke-opacity:1"><path
       id="path7125"
       style="fill:none;stroke:#262626;stroke-width:1;stroke-linecap:round;stroke-linejoin:round;stroke-dasharray:none;stroke-opacity:1"
       class="icon-stroke"
       d="M 14,15 V 9 m 0,0 -2,2 m 2,-2 2,2 M 9,6 h 10 c 0.554,0 1,0.446 1,1 v 10 c 0,0.554 -0.446,1 -1,1 H 9 C 8.446,18 8,17.554 8,17 V 7 C 8,6.446 8.446,6 9,6 Z m 5,12.233636 V 21 c 0,0.554 -0.446,1 -1,1 H 3 C 2.446,22 2,21.554 2,21 V 11 c 0,-0.554 0.446,-1 1,-1 h 4.770666" /></g></svg>
