<?xml version="1.0" encoding="UTF-8" standalone="no"?>
<svg
   width="5.5562501mm"
   height="5.5562501mm"
   viewBox="0 0 21.000001 21.000001"
   version="1.1"
   id="svg1172"
   xml:space="preserve"
   xmlns="http://www.w3.org/2000/svg"
   xmlns:svg="http://www.w3.org/2000/svg"><defs
     id="defs820"><style
       id="style818">
      .icon-stroke {
        fill: none;
        stroke: #262626;
        stroke-width: 2;
        stroke-linecap: round;
        stroke-linejoin: round;
      }
      .icon-fill {
        fill: #262626;
        stroke: none;
      }
      .label {
        fill: #999;
        stroke: none;
        font-family: Arial, sans-serif;
        font-size: 10px;
        text-anchor: middle;
      }
    </style><style
       id="style818-7">
      .icon-stroke {
        fill: none;
        stroke: #262626;
        stroke-width: 2;
        stroke-linecap: round;
        stroke-linejoin: round;
      }
      .icon-fill {
        fill: #262626;
        stroke: none;
      }
      .label {
        fill: #999;
        stroke: none;
        font-family: Arial, sans-serif;
        font-size: 10px;
        text-anchor: middle;
      }
    </style></defs><g
     transform="translate(-1.5,-1.5)"
     id="g7119"
     style="stroke:#262626;stroke-width:1;stroke-dasharray:none;stroke-opacity:1"><path
       id="path7115"
       style="fill:none;stroke:#262626;stroke-width:1;stroke-linecap:round;stroke-linejoin:round;stroke-dasharray:none;stroke-opacity:1"
       class="icon-stroke"
       d="m 16,19 v -6 m 0,0 -3,3 m 3,-3 3,3 m -8,-6 h 10 c 0.554,0 1,0.446 1,1 v 10 c 0,0.554 -0.446,1 -1,1 H 11 c -0.554,0 -1,-0.446 -1,-1 V 11 c 0,-0.554 0.446,-1 1,-1 z M 9.7366042,14 H 3 C 2.446,14 2,13.554 2,13 V 3 C 2,2.446 2.446,2 3,2 h 10 c 0.554,0 1,0.446 1,1 v 6.7947675" /></g></svg>
