<?xml version="1.0" encoding="UTF-8" standalone="no"?>
<svg
   width="6.2611442mm"
   height="2.7595856mm"
   viewBox="0 0 23.664167 10.42993"
   version="1.1"
   id="svg1172"
   xml:space="preserve"
   xmlns="http://www.w3.org/2000/svg"
   xmlns:svg="http://www.w3.org/2000/svg"><defs
     id="defs820"><style
       id="style818">
      .icon-stroke {
        fill: none;
        stroke: #262626;
        stroke-width: 2;
        stroke-linecap: round;
        stroke-linejoin: round;
      }
      .icon-fill {
        fill: #262626;
        stroke: none;
      }
      .label {
        fill: #999;
        stroke: none;
        font-family: Arial, sans-serif;
        font-size: 10px;
        text-anchor: middle;
      }
    </style><style
       id="style818-7">
      .icon-stroke {
        fill: none;
        stroke: #262626;
        stroke-width: 2;
        stroke-linecap: round;
        stroke-linejoin: round;
      }
      .icon-fill {
        fill: #262626;
        stroke: none;
      }
      .label {
        fill: #999;
        stroke: none;
        font-family: Arial, sans-serif;
        font-size: 10px;
        text-anchor: middle;
      }
    </style></defs><g
     transform="matrix(0.66791661,0,0,0.66791661,3.5498291,-2.8886817)"
     id="g988"
     style="stroke:#262626;stroke-width:1.49719;stroke-dasharray:none;stroke-opacity:1"><path
       id="path5640"
       style="fill:none;stroke:#262626;stroke-width:1.49719;stroke-dasharray:none;stroke-opacity:1"
       d="m -2.1424171,14.344775 c 0.6106484,-0.732778 1.21437364,-1.382478 1.81117569,-1.9491 4.66719981,-4.4311797 8.91099291,-3.7814797 12.73137941,1.9491 3.85554,5.78331 8.142314,6.391806 12.860322,1.825489 m 4.105986,-1.825476 c 0,1.338605 -1.085155,2.423759 -2.42376,2.423759 -1.338605,0 -2.423759,-1.085154 -2.423759,-2.423759 0,-1.338605 1.085154,-2.42376 2.423759,-2.42376 1.338606,0 2.42376,1.085154 2.42376,2.42376 z M 22.100921,7.4972692 c 0,1.3386055 -1.085155,2.4237594 -2.42376,2.423759 -1.338605,-1e-7 -2.423759,-1.0851539 -2.423759,-2.423759 0,-1.3386051 1.085154,-2.4237589 2.423759,-2.423759 1.338605,-4e-7 2.42376,1.0851535 2.42376,2.423759 z m -7.27703,6.8475188 c 0,1.338605 -1.085154,2.423759 -2.423759,2.423759 -1.338605,0 -2.4237599,-1.085154 -2.42376,-2.423759 -4e-7,-1.338606 1.085154,-2.42376 2.42376,-2.42376 1.338605,0 2.423759,1.085155 2.423759,2.42376 z M 8.3605328,9.4972692 c -2e-7,1.3386048 -1.0851541,2.4237588 -2.4237592,2.4237588 -1.3386051,0 -2.423759,-1.085154 -2.4237592,-2.4237588 1e-7,-1.3386052 1.085154,-2.423759 2.4237592,-2.423759 1.3386052,0 2.4237591,1.0851538 2.4237592,2.423759 z M 0.28133605,14.344788 c -1.1e-7,1.338605 -1.08515407,2.423759 -2.42375925,2.423759 -1.3386052,0 -2.4237591,-1.085154 -2.4237592,-2.423759 -4e-7,-1.338606 1.0851536,-2.42376 2.4237592,-2.42376 1.33860557,0 2.42375969,1.085154 2.42375925,2.42376 z" /></g></svg>
