<?xml version="1.0" encoding="UTF-8" standalone="no"?>
<svg
   width="32"
   height="32"
   version="1.1"
   id="svg33"
   xml:space="preserve"
   xmlns:xlink="http://www.w3.org/1999/xlink"
   xmlns="http://www.w3.org/2000/svg"
   xmlns:svg="http://www.w3.org/2000/svg"><defs
     id="defs13"><linearGradient
       id="a"
       y1="2.579"
       y2="61.14"
       x2="0"
       gradientUnits="userSpaceOnUse"
       gradientTransform="matrix(.5 0 0-.48276 384.57 547.25)"><stop
         stop-color="#ffffff"
         stop-opacity="0"
         id="stop2" /><stop
         offset="1"
         stop-color="#ffffff"
         stop-opacity=".2"
         id="stop4" /></linearGradient><linearGradient
       id="b"
       y1="524.8"
       x1="404.57"
       y2="531.8"
       x2="411.57"
       gradientUnits="userSpaceOnUse"><stop
         stop-color="#383e51"
         id="stop7" /><stop
         offset="1"
         stop-color="#655c6f"
         stop-opacity="0"
         id="stop9" /></linearGradient><path
       id="c"
       d="m389.57 545.8v-28h15l7 7v21h-7z" /><style
       id="style818">
      .icon-stroke {
        fill: none;
        stroke: #262626;
        stroke-width: 2;
        stroke-linecap: round;
        stroke-linejoin: round;
      }
      .icon-fill {
        fill: #262626;
        stroke: none;
      }
      .label {
        fill: #999;
        stroke: none;
        font-family: Arial, sans-serif;
        font-size: 10px;
        text-anchor: middle;
      }
    </style><style
       id="style818-7">
      .icon-stroke {
        fill: none;
        stroke: #262626;
        stroke-width: 2;
        stroke-linecap: round;
        stroke-linejoin: round;
      }
      .icon-fill {
        fill: #262626;
        stroke: none;
      }
      .label {
        fill: #999;
        stroke: none;
        font-family: Arial, sans-serif;
        font-size: 10px;
        text-anchor: middle;
      }
    </style><style
       id="style818-2">
      .icon-stroke {
        fill: none;
        stroke: #262626;
        stroke-width: 2;
        stroke-linecap: round;
        stroke-linejoin: round;
      }
      .icon-fill {
        fill: #262626;
        stroke: none;
      }
      .label {
        fill: #999;
        stroke: none;
        font-family: Arial, sans-serif;
        font-size: 10px;
        text-anchor: middle;
      }
    </style><style
       id="style818-7-9">
      .icon-stroke {
        fill: none;
        stroke: #262626;
        stroke-width: 2;
        stroke-linecap: round;
        stroke-linejoin: round;
      }
      .icon-fill {
        fill: #262626;
        stroke: none;
      }
      .label {
        fill: #999;
        stroke: none;
        font-family: Arial, sans-serif;
        font-size: 10px;
        text-anchor: middle;
      }
    </style><marker
       markerWidth="10"
       markerHeight="0.001"
       refX="0"
       refY="0"
       orient="auto-start-reverse"
       id="CapTriangle-9"
       viewBox="0 0 0.525 1"
       style="overflow:visible"
       preserveAspectRatio="xMidYMid"><path
         id="path7813-1"
         style="fill:context-stroke;stroke-linecap:butt"
         d="M 0,-1 1,0 0,1 -0.05,0 Z"
         transform="scale(0.5)" /></marker></defs><g
     transform="translate(-384.57-515.8)"
     id="g31"><use
       fill="#cccccc"
       xlink:href="#c"
       id="use15" /><use
       fill="url(#a)"
       xlink:href="#c"
       id="use17" /><g
       transform="scale(1-1)"
       id="g23"><rect
         width="15"
         x="389.57"
         opacity=".5"
         y="-518.8"
         fill="#ffffff"
         height="1"
         id="rect19" /><rect
         width="22"
         x="389.57"
         y="-545.8"
         fill="#2e3132"
         height="1"
         fill-opacity=".294"
         id="rect21" /></g><g
       fill-rule="evenodd"
       id="g29"><path
         opacity=".5"
         fill="#ffffff"
         d="m411.57 524.8l-7-7v7z"
         id="path25" /><path
         opacity=".2"
         fill="url(#b)"
         d="m411.57 531.8l-7-7h7z"
         id="path27" /></g></g><g
     id="g1070"
     transform="translate(605.28631,54.778326)"
     style="stroke:#262626;stroke-width:1.00157;stroke-dasharray:none;stroke-opacity:1"><path
       stroke="#000000"
       stroke-linecap="round"
       stroke-linejoin="round"
       d="m -598.25209,-32.926624 c 0.0318,0.02223 0.0789,0.05396 0.13459,0.0881 0.0486,0.02982 0.10684,0.06334 0.17169,0.09602 0.10266,0.05174 0.22848,0.104796 0.3723,0.139685 0.19934,0.04836 0.44451,0.06541 0.75065,-0.01204 0.2498,-0.0632 0.54436,-0.189728 0.91001,-0.422311 0.20016,-0.12731 0.42877,-0.287924 0.69501,-0.487989 0.90487,-0.67997 2.28433,-1.873613 4.00864,-3.274966 0.67034,-0.54479 1.39435,-1.118244 2.10083,-1.638445 0.64851,-0.47752 1.27233,-0.902775 1.82149,-1.221115 0.25835,-0.149755 0.48331,-0.265983 0.67327,-0.35045 0.19079,-0.08484 0.30497,-0.119376 0.36267,-0.134242 0.0438,-0.01128 -0.01,0.01589 -0.20445,-0.02264 -0.0961,-0.01903 -0.22157,-0.05719 -0.35759,-0.131676 -0.13696,-0.075 -0.26261,-0.174953 -0.36691,-0.294244 -0.0789,-0.09405 -0.1431,-0.202372 -0.18656,-0.316911 -0.0418,-0.11028 -0.0571,-0.206737 -0.059,-0.27625 -0.003,-0.104914 0.0366,-0.172479 0.0215,-0.04255 -0.0116,0.09974 -0.0595,0.272034 -0.16076,0.511344 -0.098,0.231465 -0.23657,0.50422 -0.41799,0.816868 -0.35499,0.611752 -0.83832,1.315626 -1.42102,2.09517 -0.56562,0.756684 -1.1956,1.546043 -1.85019,2.352446 -0.67365,0.826386 -1.25175,1.606256 -1.71649,2.330766 -0.46139,0.719309 -0.82475,1.405115 -1.05586,2.045272 -0.11688,0.323752 -0.205,0.649677 -0.25116,0.972279 -0.0465,0.325159 -0.0527,0.663066 0.009,0.99728 0.0631,0.344307 0.1956,0.671861 0.40906,0.959706 0.21567,0.290815 0.4864,0.504231 0.77723,0.656572 0.38667,0.209419 0.78826,0.282786 1.16432,0.273849 0.37686,-0.009 0.73182,-0.100056 1.04548,-0.218574 0.32453,-0.122629 0.63623,-0.286648 0.9232,-0.461994 0.29867,-0.182489 0.58851,-0.388326 0.85902,-0.59626 0.0947,-0.07278 0.18787,-0.146496 0.27918,-0.220408 0.43543,-0.352471 0.86012,-0.741701 1.25472,-1.129407 0.22384,-0.219932 0.43386,-0.435316 0.62503,-0.636696 0.18476,-0.194628 0.34955,-0.373702 0.4862,-0.524318 0.33959,-0.366456 0.70062,-0.802821 1.0596,-1.217196 0.35323,-0.407737 0.6992,-0.788062 1.02989,-1.07995 0.16167,-0.142694 0.30942,-0.255028 0.44358,-0.337454 0.13377,-0.08219 0.23943,-0.125603 0.32039,-0.146257 0.0391,-0.01 0.0728,-0.01474 0.10155,-0.01579 0.0286,-10e-4 0.0573,0.0013 0.0879,0.0096 0.031,0.0084 0.0679,0.02408 0.11086,0.05298 0.0433,0.02912 0.093,0.07183 0.14745,0.133462 0.0353,0.03752 0.0615,0.0767 0.0805,0.120575 0.0195,0.04504 0.0339,0.100784 0.0392,0.171759 0.0109,0.147554 -0.0191,0.34115 -0.1,0.584964 -0.0807,0.243374 -0.20332,0.511525 -0.35322,0.800054 -0.15124,0.291111 -0.32539,0.593841 -0.50251,0.901626 -0.18021,0.313172 -0.36153,0.628238 -0.52436,0.940685 -0.16607,0.318647 -0.31319,0.635113 -0.41924,0.94306 -0.10866,0.31554 -0.17702,0.630224 -0.17363,0.933098 0.002,0.156009 0.0225,0.309076 0.0668,0.456696 0.0452,0.150818 0.11362,0.291993 0.2063,0.421824 0.14778,0.202639 0.32082,0.346756 0.50967,0.438921 0.19672,0.096 0.4018,0.13081 0.59655,0.127332 0.20601,-0.0037 0.40713,-0.04961 0.59248,-0.1144 0.20168,-0.07049 0.39591,-0.167261 0.57328,-0.271471 0.42478,-0.249568 0.80279,-0.570929 1.05957,-0.812783 0.30718,-0.289314 0.5138,-0.532186 0.60623,-0.650884 0.1129,-0.144967 0.15295,-0.235512 0.17365,-0.270124 -0.0405,0.02982 -0.10816,0.06563 -0.25867,0.18649 -0.0862,0.06923 -0.38472,0.318913 -0.68455,0.538507 -0.27793,0.203554 -0.67051,0.46808 -1.08144,0.651673 -0.17165,0.07669 -0.3477,0.139784 -0.51907,0.177509 -0.15853,0.0349 -0.30798,0.04694 -0.4425,0.03099 -0.12519,-0.01484 -0.23261,-0.05268 -0.3271,-0.116938 -0.0877,-0.05961 -0.17249,-0.148149 -0.24871,-0.28109 -0.0431,-0.07373 -0.0715,-0.150737 -0.0877,-0.231989 -0.016,-0.08013 -0.0208,-0.167931 -0.0136,-0.264767 0.0142,-0.191423 0.0748,-0.413949 0.18335,-0.672039 0.10544,-0.250621 0.2498,-0.520195 0.42298,-0.810536 0.16997,-0.284988 0.35841,-0.574794 0.55695,-0.879981 0.19113,-0.293798 0.39245,-0.603095 0.57177,-0.904719 0.17706,-0.297805 0.34376,-0.606285 0.4679,-0.910592 0.12188,-0.298775 0.21469,-0.621839 0.22184,-0.948592 0.004,-0.165177 -0.0146,-0.334631 -0.064,-0.503176 -0.0496,-0.169067 -0.12878,-0.330341 -0.23985,-0.479562 -0.0919,-0.124727 -0.19325,-0.237116 -0.30541,-0.334419 -0.11243,-0.09753 -0.23483,-0.179072 -0.36731,-0.242018 -0.13271,-0.06306 -0.27092,-0.105238 -0.41256,-0.127606 -0.14131,-0.02232 -0.28154,-0.02422 -0.41827,-0.01044 -0.27187,0.02739 -0.53005,0.116662 -0.76533,0.231751 -0.23739,0.116125 -0.46678,0.266081 -0.68364,0.429395 -0.43662,0.328827 -0.86762,0.746982 -1.25348,1.136014 -0.42161,0.425086 -0.76496,0.789063 -1.10305,1.101367 -0.1677,0.153533 -0.34613,0.319543 -0.51384,0.473087 -0.19673,0.180156 -0.40638,0.369435 -0.62773,0.56199 -0.39177,0.340799 -0.7926,0.667716 -1.19037,0.953305 -0.0828,0.05941 -0.16621,0.117372 -0.25003,0.173371 -0.24178,0.161527 -0.48411,0.305077 -0.71781,0.419194 -0.22695,0.110819 -0.43556,0.188801 -0.61694,0.230032 -0.17777,0.04041 -0.30703,0.04016 -0.38564,0.01885 -0.0773,-0.02095 -0.0824,-0.05237 -0.0854,-0.07451 -0.0331,-0.04525 -0.003,-0.05566 0.0275,-0.04666 0.0311,0.0093 0.0592,0.03472 0.0798,0.01931 0.0206,-0.01542 0.0394,-0.06939 0.0855,-0.173305 0.0467,-0.105211 0.11237,-0.241071 0.21762,-0.421519 0.21151,-0.362618 0.53138,-0.816452 0.99994,-1.384083 0.464,-0.562097 1.04212,-1.19751 1.73479,-1.907815 0.73214,-0.754099 1.46537,-1.525513 2.14061,-2.281936 0.69001,-0.77296 1.32981,-1.54176 1.85038,-2.271795 0.26876,-0.376922 0.51475,-0.755994 0.72312,-1.131695 0.21202,-0.382269 0.4005,-0.78848 0.53074,-1.2088 0.13299,-0.429176 0.22493,-0.936131 0.17344,-1.48042 -0.027,-0.28486 -0.0934,-0.580003 -0.21349,-0.872504 -0.12344,-0.30062 -0.29503,-0.577384 -0.50959,-0.822388 -0.21848,-0.246401 -0.47467,-0.447533 -0.75696,-0.599928 -0.28313,-0.152852 -0.57073,-0.245094 -0.84234,-0.296147 -0.53805,-0.101132 -1.03941,-0.04615 -1.43043,0.03803 -0.41238,0.08877 -0.80606,0.232856 -1.15928,0.389222 -0.36991,0.163757 -0.73703,0.359608 -1.08942,0.567795 -0.7419,0.438308 -1.50102,0.980443 -2.20518,1.527669 -0.78068,0.606697 -1.54415,1.258896 -2.22607,1.8733 -1.75938,1.585191 -3.04377,2.953955 -3.77851,3.860964 -0.21571,0.266282 -0.38816,0.49826 -0.52343,0.700524 -0.24736,0.369854 -0.38137,0.671795 -0.44816,0.925142 -0.0821,0.311316 -0.0648,0.55995 -0.0151,0.759893 0.0359,0.14449 0.0907,0.269958 0.14422,0.371884 0.0338,0.0644 0.0685,0.121937 0.0994,0.169959 0.0354,0.05508 0.0681,0.10116 0.0912,0.132513 z"
       stroke-width="1"
       id="path2021-3-0"
       style="fill:#b3b3b3;fill-rule:nonzero;stroke:#262626;stroke-width:0;stroke-dasharray:none;stroke-opacity:1;marker-start:url(#CapTriangle-9)" /><path
       stroke="#000000"
       stroke-linecap="round"
       stroke-linejoin="round"
       d="m -599.01086,-33.448689 c 0.0318,0.02223 0.0789,0.05396 0.13459,0.0881 0.0486,0.02982 0.10684,0.06334 0.17169,0.09602 0.10266,0.05174 0.22848,0.104796 0.3723,0.139685 0.19934,0.04836 0.44451,0.06541 0.75065,-0.01204 0.2498,-0.0632 0.54436,-0.189728 0.91001,-0.422311 0.20016,-0.12731 0.42877,-0.287924 0.69501,-0.487989 0.90487,-0.67997 2.28433,-1.873613 4.00864,-3.274966 0.67034,-0.54479 1.39435,-1.118244 2.10083,-1.638445 0.64851,-0.47752 1.27233,-0.902775 1.82149,-1.221115 0.25835,-0.149755 0.48331,-0.265983 0.67327,-0.35045 0.19079,-0.08484 0.30497,-0.119376 0.36267,-0.134242 0.0438,-0.01128 -0.01,0.01589 -0.20445,-0.02264 -0.0961,-0.01903 -0.22157,-0.05719 -0.35759,-0.131676 -0.13696,-0.075 -0.26261,-0.174953 -0.36691,-0.294244 -0.0789,-0.09405 -0.1431,-0.202372 -0.18656,-0.316911 -0.0418,-0.11028 -0.0571,-0.206737 -0.059,-0.27625 -0.003,-0.104914 0.0366,-0.172479 0.0215,-0.04255 -0.0116,0.09974 -0.0595,0.272034 -0.16076,0.511344 -0.098,0.231465 -0.23657,0.50422 -0.41799,0.816868 -0.35499,0.611752 -0.83832,1.315626 -1.42102,2.09517 -0.56562,0.756684 -1.1956,1.546043 -1.85019,2.352446 -0.67365,0.826386 -1.25175,1.606256 -1.71649,2.330766 -0.46139,0.719309 -0.82475,1.405115 -1.05586,2.045272 -0.11688,0.323752 -0.205,0.649677 -0.25116,0.972279 -0.0465,0.325159 -0.0527,0.663066 0.009,0.99728 0.0631,0.344307 0.1956,0.671861 0.40906,0.959706 0.21567,0.290815 0.4864,0.504231 0.77723,0.656572 0.38667,0.209419 0.78826,0.282786 1.16432,0.273849 0.37686,-0.009 0.73182,-0.100056 1.04548,-0.218574 0.32453,-0.122629 0.63623,-0.286648 0.9232,-0.461994 0.29867,-0.182489 0.58851,-0.388326 0.85902,-0.59626 0.0947,-0.07278 0.18787,-0.146496 0.27918,-0.220408 0.43543,-0.352471 0.86012,-0.741701 1.25472,-1.129407 0.22384,-0.219932 0.43386,-0.435316 0.62503,-0.636696 0.18476,-0.194628 0.34955,-0.373702 0.4862,-0.524318 0.33959,-0.366456 0.70062,-0.802821 1.0596,-1.217196 0.35323,-0.407737 0.6992,-0.788062 1.02989,-1.07995 0.16167,-0.142694 0.30942,-0.255028 0.44358,-0.337454 0.13377,-0.08219 0.23943,-0.125603 0.32039,-0.146257 0.0391,-0.01 0.0728,-0.01474 0.10155,-0.01579 0.0286,-10e-4 0.0573,0.0013 0.0879,0.0096 0.031,0.0084 0.0679,0.02408 0.11086,0.05298 0.0433,0.02912 0.093,0.07183 0.14745,0.133462 0.0353,0.03752 0.0615,0.0767 0.0805,0.120575 0.0195,0.04504 0.0339,0.100784 0.0392,0.171759 0.0109,0.147554 -0.0191,0.34115 -0.1,0.584964 -0.0807,0.243374 -0.20332,0.511525 -0.35322,0.800054 -0.15124,0.291111 -0.32539,0.593841 -0.50251,0.901626 -0.18021,0.313172 -0.36153,0.628238 -0.52436,0.940685 -0.16607,0.318647 -0.31319,0.635113 -0.41924,0.94306 -0.10866,0.31554 -0.17702,0.630224 -0.17363,0.933098 0.002,0.156009 0.0225,0.309076 0.0668,0.456696 0.0452,0.150818 0.11362,0.291993 0.2063,0.421824 0.14778,0.202639 0.32082,0.346756 0.50967,0.438921 0.19672,0.096 0.4018,0.13081 0.59655,0.127332 0.20601,-0.0037 0.40713,-0.04961 0.59248,-0.1144 0.20168,-0.07049 0.39591,-0.167261 0.57328,-0.271471 0.42478,-0.249568 0.80279,-0.570929 1.05957,-0.812783 0.30718,-0.289314 0.5138,-0.532186 0.60623,-0.650884 0.1129,-0.144967 0.15295,-0.235512 0.17365,-0.270124 -0.0405,0.02982 -0.10816,0.06563 -0.25867,0.18649 -0.0862,0.06923 -0.38472,0.318913 -0.68455,0.538507 -0.27793,0.203554 -0.67051,0.46808 -1.08144,0.651673 -0.17165,0.07669 -0.3477,0.139784 -0.51907,0.177509 -0.15853,0.0349 -0.30798,0.04694 -0.4425,0.03099 -0.12519,-0.01484 -0.23261,-0.05268 -0.3271,-0.116938 -0.0877,-0.05961 -0.17249,-0.148149 -0.24871,-0.28109 -0.0431,-0.07373 -0.0715,-0.150737 -0.0877,-0.231989 -0.016,-0.08013 -0.0208,-0.167931 -0.0136,-0.264767 0.0142,-0.191423 0.0748,-0.413949 0.18335,-0.672039 0.10544,-0.250621 0.2498,-0.520195 0.42298,-0.810536 0.16997,-0.284988 0.35841,-0.574794 0.55695,-0.879981 0.19113,-0.293798 0.39245,-0.603095 0.57177,-0.904719 0.17706,-0.297805 0.34376,-0.606285 0.4679,-0.910592 0.12188,-0.298775 0.21469,-0.621839 0.22184,-0.948592 0.004,-0.165177 -0.0146,-0.334631 -0.064,-0.503176 -0.0496,-0.169067 -0.12878,-0.330341 -0.23985,-0.479562 -0.0919,-0.124727 -0.19325,-0.237116 -0.30541,-0.334419 -0.11243,-0.09753 -0.23483,-0.179072 -0.36731,-0.242018 -0.13271,-0.06306 -0.27092,-0.105238 -0.41256,-0.127606 -0.14131,-0.02232 -0.28154,-0.02422 -0.41827,-0.01044 -0.27187,0.02739 -0.53005,0.116662 -0.76533,0.231751 -0.23739,0.116125 -0.46678,0.266081 -0.68364,0.429395 -0.43662,0.328827 -0.86762,0.746982 -1.25348,1.136014 -0.42161,0.425086 -0.76496,0.789063 -1.10305,1.101367 -0.1677,0.153533 -0.34613,0.319543 -0.51384,0.473087 -0.19673,0.180156 -0.40638,0.369435 -0.62773,0.56199 -0.39177,0.340799 -0.7926,0.667716 -1.19037,0.953305 -0.0828,0.05941 -0.16621,0.117372 -0.25003,0.173371 -0.24178,0.161527 -0.48411,0.305077 -0.71781,0.419194 -0.22695,0.110819 -0.43556,0.188801 -0.61694,0.230032 -0.17777,0.04041 -0.30703,0.04016 -0.38564,0.01885 -0.0773,-0.02095 -0.0824,-0.05237 -0.0854,-0.07451 -0.0331,-0.04525 -0.003,-0.05566 0.0275,-0.04666 0.0311,0.0093 0.0592,0.03472 0.0798,0.01931 0.0206,-0.01542 0.0394,-0.06939 0.0855,-0.173305 0.0467,-0.105211 0.11237,-0.241071 0.21762,-0.421519 0.21151,-0.362618 0.53138,-0.816452 0.99994,-1.384083 0.464,-0.562097 1.04212,-1.19751 1.73479,-1.907815 0.73214,-0.754099 1.46537,-1.525513 2.14061,-2.281936 0.69001,-0.77296 1.32981,-1.54176 1.85038,-2.271795 0.26876,-0.376922 0.51475,-0.755994 0.72312,-1.131695 0.21202,-0.382269 0.4005,-0.78848 0.53074,-1.2088 0.13299,-0.429176 0.22493,-0.936131 0.17344,-1.48042 -0.027,-0.28486 -0.0934,-0.580003 -0.21349,-0.872504 -0.12344,-0.30062 -0.29503,-0.577384 -0.50959,-0.822388 -0.21848,-0.246401 -0.47467,-0.447533 -0.75696,-0.599928 -0.28313,-0.152852 -0.57073,-0.245094 -0.84234,-0.296147 -0.53805,-0.101132 -1.03941,-0.04615 -1.43043,0.03803 -0.41238,0.08877 -0.80606,0.232856 -1.15928,0.389222 -0.36991,0.163757 -0.73703,0.359608 -1.08942,0.567795 -0.7419,0.438308 -1.50102,0.980443 -2.20518,1.527669 -0.78068,0.606697 -1.54415,1.258896 -2.22607,1.8733 -1.75938,1.585191 -3.04377,2.953955 -3.77851,3.860964 -0.21571,0.266282 -0.38816,0.49826 -0.52343,0.700524 -0.24736,0.369854 -0.38137,0.671795 -0.44816,0.925142 -0.0821,0.311316 -0.0648,0.55995 -0.0151,0.759893 0.0359,0.14449 0.0907,0.269958 0.14422,0.371884 0.0338,0.0644 0.0685,0.121937 0.0994,0.169959 0.0354,0.05508 0.0681,0.10116 0.0912,0.132513 z"
       stroke-width="1"
       id="path346"
       style="fill:#666666;fill-rule:nonzero;stroke:#262626;stroke-width:0;stroke-dasharray:none;stroke-opacity:1;marker-start:url(#CapTriangle-9)" /></g></svg>
