<?xml version="1.0" encoding="UTF-8" standalone="no"?>
<svg
   width="5.291667mm"
   height="5.291667mm"
   viewBox="0 0 20.000001 20.000001"
   version="1.1"
   id="svg1172"
   xml:space="preserve"
   xmlns="http://www.w3.org/2000/svg"
   xmlns:svg="http://www.w3.org/2000/svg"><defs
     id="defs820"><style
       id="style818">
      .icon-stroke {
        fill: none;
        stroke: #262626;
        stroke-width: 2;
        stroke-linecap: round;
        stroke-linejoin: round;
      }
      .icon-fill {
        fill: #262626;
        stroke: none;
      }
      .label {
        fill: #999;
        stroke: none;
        font-family: Arial, sans-serif;
        font-size: 10px;
        text-anchor: middle;
      }
    </style><style
       id="style818-7">
      .icon-stroke {
        fill: none;
        stroke: #262626;
        stroke-width: 2;
        stroke-linecap: round;
        stroke-linejoin: round;
      }
      .icon-fill {
        fill: #262626;
        stroke: none;
      }
      .label {
        fill: #999;
        stroke: none;
        font-family: Arial, sans-serif;
        font-size: 10px;
        text-anchor: middle;
      }
    </style></defs><g
     transform="translate(-1.5,-1.5)"
     id="g7089"
     style="stroke:#262626;stroke-width:1;stroke-dasharray:none;stroke-opacity:1"><path
       id="path7085"
       style="fill:none;stroke:#262626;stroke-width:1;stroke-linecap:round;stroke-linejoin:round;stroke-dasharray:none;stroke-opacity:1"
       class="icon-stroke"
       d="m 11.5,14.5 h 6 m -3,-3 v 6 M 5,15 H 4 A 2,2 0 0 1 2,13 V 4 A 2,2 0 0 1 4,2 h 9 a 2,2 0 0 1 2,2 v 1 m -5,3 h 9 c 1.108,0 2,0.892 2,2 v 9 c 0,1.108 -0.892,2 -2,2 H 10 C 8.892,21 8,20.108 8,19 V 10 C 8,8.892 8.892,8 10,8 Z" /></g></svg>
