<?xml version="1.0" encoding="UTF-8" standalone="no"?>
<svg
   width="6.1073565mm"
   height="6.3607516mm"
   viewBox="0 0 23.082923 24.040636"
   version="1.1"
   id="svg1172"
   xml:space="preserve"
   xmlns="http://www.w3.org/2000/svg"
   xmlns:svg="http://www.w3.org/2000/svg"><defs
     id="defs820"><style
       id="style818">
      .icon-stroke {
        fill: none;
        stroke: #262626;
        stroke-width: 2;
        stroke-linecap: round;
        stroke-linejoin: round;
      }
      .icon-fill {
        fill: #262626;
        stroke: none;
      }
      .label {
        fill: #999;
        stroke: none;
        font-family: Arial, sans-serif;
        font-size: 10px;
        text-anchor: middle;
      }
    </style><style
       id="style818-7">
      .icon-stroke {
        fill: none;
        stroke: #262626;
        stroke-width: 2;
        stroke-linecap: round;
        stroke-linejoin: round;
      }
      .icon-fill {
        fill: #262626;
        stroke: none;
      }
      .label {
        fill: #999;
        stroke: none;
        font-family: Arial, sans-serif;
        font-size: 10px;
        text-anchor: middle;
      }
    </style></defs><g
     transform="matrix(0.86858629,0,0,0.86858629,-411.76601,-2.7264988)"
     id="g3051"
     style="stroke:#262626;stroke-width:1.1513;stroke-dasharray:none;stroke-opacity:1"><path
       id="path3280"
       style="fill:none;stroke:#262626;stroke-width:1.04325;stroke-linecap:round;stroke-linejoin:round;stroke-dasharray:none;paint-order:fill markers stroke"
       d="m 2283.3444,361.32177 h 7.4033 c 2.2494,0 4.0603,-1.61904 4.0603,-3.63012 v -8.34273 c 0,-1.10161 -0.1874,-2.48518 -1.4513,-3.74906 -2.8724,-2.66088 -9.277,-8.31533 -10.0192,-8.31533 m -0.104,24.03724 h -7.4033 c -2.2494,0 -4.0603,-1.61904 -4.0603,-3.63012 v -8.34273 c 0,-1.10161 0.1874,-2.48518 1.4513,-3.74906 2.8724,-2.66088 9.371,-8.31533 10.0192,-8.31533 m -4.04,23.63132 v -10.0741 c 0,-0.56195 0.6036,-1.01436 1.3532,-1.01436 h 5.4707 c 0.7496,0 1.3532,0.45241 1.3532,1.01436 v 10.0741"
       transform="matrix(1.1035624,0,0,1.1035624,-2032.3996,-368.49987)" /></g></svg>
