<?xml version="1.0" encoding="UTF-8" standalone="no"?>
<svg
   width="5.9795833mm"
   height="5.9795833mm"
   viewBox="0 0 22.6 22.6"
   version="1.1"
   id="svg1172"
   xml:space="preserve"
   xmlns="http://www.w3.org/2000/svg"
   xmlns:svg="http://www.w3.org/2000/svg"><defs
     id="defs820"><style
       id="style818">
      .icon-stroke {
        fill: none;
        stroke: #262626;
        stroke-width: 2;
        stroke-linecap: round;
        stroke-linejoin: round;
      }
      .icon-fill {
        fill: #262626;
        stroke: none;
      }
      .label {
        fill: #999;
        stroke: none;
        font-family: Arial, sans-serif;
        font-size: 10px;
        text-anchor: middle;
      }
    </style><style
       id="style818-7">
      .icon-stroke {
        fill: none;
        stroke: #262626;
        stroke-width: 2;
        stroke-linecap: round;
        stroke-linejoin: round;
      }
      .icon-fill {
        fill: #262626;
        stroke: none;
      }
      .label {
        fill: #999;
        stroke: none;
        font-family: Arial, sans-serif;
        font-size: 10px;
        text-anchor: middle;
      }
    </style></defs><g
     style="fill:none;stroke:#262626;stroke-width:0.833333;stroke-dasharray:none;stroke-opacity:1;paint-order:stroke fill markers"
     id="g1868"
     transform="matrix(1.2,0,0,1.2,-3.1,-0.70000001)"><path
       d="m 4,19 h 8 c 0.5523,0 1,-0.4477 1,-1 V 7 C 13,6.44772 12.5522,6 12,6 H 4 C 3.44772,6 3,6.44772 3,7 v 11 c 0,0.5523 0.44772,1 1,1 z"
       stroke="currentColor"
       stroke-width="2"
       stroke-linecap="round"
       stroke-linejoin="round"
       id="path1856"
       style="stroke:#262626;stroke-width:0.833333;stroke-dasharray:none;stroke-opacity:1" /><path
       d="m 17,14 h 3 c 0.5523,0 1,-0.4477 1,-1 V 2 C 21,1.44772 20.5523,1 20,1 h -8 c -0.5523,0 -1,0.44772 -1,1 v 1"
       stroke="currentColor"
       stroke-width="2"
       stroke-linecap="round"
       stroke-linejoin="round"
       id="path1858"
       style="stroke:#262626;stroke-width:0.833333;stroke-dasharray:none;stroke-opacity:1" /></g></svg>
