<?xml version="1.0" encoding="UTF-8" standalone="no"?>
<svg
   width="5.8380575mm"
   height="6.6675439mm"
   viewBox="0 0 22.065099 25.200166"
   version="1.1"
   id="svg1172"
   xml:space="preserve"
   xmlns="http://www.w3.org/2000/svg"
   xmlns:svg="http://www.w3.org/2000/svg"><defs
     id="defs820"><style
       id="style818">
      .icon-stroke {
        fill: none;
        stroke: #262626;
        stroke-width: 2;
        stroke-linecap: round;
        stroke-linejoin: round;
      }
      .icon-fill {
        fill: #262626;
        stroke: none;
      }
      .label {
        fill: #999;
        stroke: none;
        font-family: Arial, sans-serif;
        font-size: 10px;
        text-anchor: middle;
      }
    </style><style
       id="style818-7">
      .icon-stroke {
        fill: none;
        stroke: #262626;
        stroke-width: 2;
        stroke-linecap: round;
        stroke-linejoin: round;
      }
      .icon-fill {
        fill: #262626;
        stroke: none;
      }
      .label {
        fill: #999;
        stroke: none;
        font-family: Arial, sans-serif;
        font-size: 10px;
        text-anchor: middle;
      }
    </style></defs><g
     transform="translate(-1.9949409,-1.1742248)"
     id="g2181"
     style="stroke:#262626;stroke-width:1;stroke-dasharray:none;stroke-opacity:1"><path
       id="path2986"
       style="fill:#262626;fill-opacity:1;stroke:#262626;stroke-width:1;stroke-linecap:round;stroke-linejoin:round;stroke-dasharray:none;stroke-dashoffset:1.6;stroke-opacity:1;paint-order:stroke markers fill"
       d="m 23.56004,23.660516 a 2.2138731,2.2138731 0 0 1 -2.213873,2.213874 2.2138731,2.2138731 0 0 1 -2.213873,-2.213874 2.2138731,2.2138731 0 0 1 2.213873,-2.213873 2.2138731,2.2138731 0 0 1 2.213873,2.213873 z m 0,-9.886209 a 2.2138731,2.2138731 0 0 1 -2.213873,2.213874 2.2138731,2.2138731 0 0 1 -2.213873,-2.213874 2.2138731,2.2138731 0 0 1 2.213873,-2.213873 2.2138731,2.2138731 0 0 1 2.213873,2.213873 z m 0,-9.886209 A 2.2138731,2.2138731 0 0 1 21.346167,6.1019711 2.2138731,2.2138731 0 0 1 19.132294,3.888098 2.2138731,2.2138731 0 0 1 21.346167,1.6742248 2.2138731,2.2138731 0 0 1 23.56004,3.888098 Z m -8.318676,19.772418 a 2.2138731,2.2138731 0 0 1 -2.213873,2.213874 2.2138731,2.2138731 0 0 1 -2.213873,-2.213874 2.2138731,2.2138731 0 0 1 2.213873,-2.213873 2.2138731,2.2138731 0 0 1 2.213873,2.213873 z m 0,-9.886209 a 2.2138731,2.2138731 0 0 1 -2.213873,2.213874 2.2138731,2.2138731 0 0 1 -2.213873,-2.213874 2.2138731,2.2138731 0 0 1 2.213873,-2.213873 2.2138731,2.2138731 0 0 1 2.213873,2.213873 z m 0,-9.886209 A 2.2138731,2.2138731 0 0 1 13.027491,6.1019711 2.2138731,2.2138731 0 0 1 10.813618,3.888098 2.2138731,2.2138731 0 0 1 13.027491,1.6742248 2.2138731,2.2138731 0 0 1 15.241364,3.888098 Z M 6.9226872,23.660516 A 2.2138731,2.2138731 0 0 1 4.7088141,25.87439 2.2138731,2.2138731 0 0 1 2.4949409,23.660516 2.2138731,2.2138731 0 0 1 4.7088141,21.446643 2.2138731,2.2138731 0 0 1 6.9226872,23.660516 Z m 0,-9.886209 a 2.2138731,2.2138731 0 0 1 -2.2138731,2.213874 2.2138731,2.2138731 0 0 1 -2.2138732,-2.213874 2.2138731,2.2138731 0 0 1 2.2138732,-2.213873 2.2138731,2.2138731 0 0 1 2.2138731,2.213873 z m 0,-9.886209 A 2.2138731,2.2138731 0 0 1 4.7088141,6.1019711 2.2138731,2.2138731 0 0 1 2.4949409,3.888098 2.2138731,2.2138731 0 0 1 4.7088141,1.6742248 2.2138731,2.2138731 0 0 1 6.9226872,3.888098 Z" /></g></svg>
