<?xml version="1.0" encoding="UTF-8" standalone="no"?>
<svg
   width="5.132113mm"
   height="5.9496727mm"
   viewBox="0 0 19.396963 22.486952"
   version="1.1"
   id="svg1172"
   xml:space="preserve"
   xmlns="http://www.w3.org/2000/svg"
   xmlns:svg="http://www.w3.org/2000/svg"><defs
     id="defs820"><style
       id="style818">
      .icon-stroke {
        fill: none;
        stroke: #262626;
        stroke-width: 2;
        stroke-linecap: round;
        stroke-linejoin: round;
      }
      .icon-fill {
        fill: #262626;
        stroke: none;
      }
      .label {
        fill: #999;
        stroke: none;
        font-family: Arial, sans-serif;
        font-size: 10px;
        text-anchor: middle;
      }
    </style><style
       id="style818-7">
      .icon-stroke {
        fill: none;
        stroke: #262626;
        stroke-width: 2;
        stroke-linecap: round;
        stroke-linejoin: round;
      }
      .icon-fill {
        fill: #262626;
        stroke: none;
      }
      .label {
        fill: #999;
        stroke: none;
        font-family: Arial, sans-serif;
        font-size: 10px;
        text-anchor: middle;
      }
    </style></defs><g
     transform="translate(-3.2916622,-2.3876739)"
     id="g62396"
     style="stroke:#262626;stroke-width:1;stroke-dasharray:none;stroke-opacity:1"><path
       id="path62388"
       style="fill:none;stroke:#262626;stroke-width:1;stroke-linecap:round;stroke-dasharray:none;stroke-dashoffset:1.6;stroke-opacity:1;paint-order:markers stroke fill"
       d="m 22.188625,11.290727 v 12.537045 c 0,0.302957 -0.243897,0.546854 -0.546854,0.546854 H 4.3385162 c -0.3029571,0 -0.546854,-0.243897 -0.546854,-0.546854 V 3.4345278 c 0,-0.3029571 0.2438969,-0.5468539 0.546854,-0.5468539 h 8.2199268 z" /><path
       id="path62561"
       style="font-style:italic;font-weight:bold;font-size:8.35119px;-inkscape-font-specification:'sans-serif Bold Italic';fill:#262626;stroke:none;stroke-width:1;stroke-linecap:round;stroke-linejoin:round;stroke-dasharray:none;stroke-opacity:1;paint-order:fill markers stroke"
       d="m 15.774787,20.007799 1.26103,-5.962749 h 3.315422 l -0.217131,1.035547 h -2.071095 l -0.325696,1.536619 h 1.929125 l -0.225483,1.035548 h -1.929124 l -0.492721,2.355035 z m -5.653755,0 1.26103,-5.962749 h 1.611779 q 1.094006,0 1.695292,0.584583 0.609637,0.576232 0.609637,1.670238 0,1.127411 -0.392506,1.96253 -0.384155,0.835118 -1.135762,1.294434 -0.743256,0.450964 -1.812208,0.450964 z m 1.89572,-1.043899 q 0.684798,0 1.127411,-0.359101 0.442613,-0.367452 0.659744,-0.960387 0.217131,-0.592934 0.217131,-1.277732 0,-0.659744 -0.308994,-0.968738 -0.300643,-0.317345 -0.835119,-0.317345 H 12.409258 L 11.58249,18.9639 Z M 5.0268014,20.007799 6.287831,14.04505 h 1.6618867 q 0.7265535,0 1.1608154,0.217131 0.442613,0.217131 0.6346904,0.609637 0.2004286,0.392505 0.2004286,0.910279 0,0.709851 -0.3423988,1.177518 -0.3423988,0.467667 -0.9269821,0.7015 -0.5845832,0.225482 -1.3278391,0.225482 H 6.7137417 l -0.4426131,2.121202 z m 2.421845,-3.15675 q 0.5595297,0 0.9019284,-0.275589 0.3423988,-0.275589 0.3423988,-0.759958 0,-0.734905 -0.793363,-0.734905 H 7.3150273 l -0.3758035,1.770452 z"
       transform="translate(4.7812555e-5)" /></g></svg>
