<?xml version="1.0" encoding="UTF-8" standalone="no"?>
<svg
   width="5.8135643mm"
   height="4.3226337mm"
   viewBox="0 0 21.972527 16.337513"
   version="1.1"
   id="svg1172"
   xml:space="preserve"
   xmlns="http://www.w3.org/2000/svg"
   xmlns:svg="http://www.w3.org/2000/svg"><defs
     id="defs820"><style
       id="style818">
      .icon-stroke {
        fill: none;
        stroke: #262626;
        stroke-width: 2;
        stroke-linecap: round;
        stroke-linejoin: round;
      }
      .icon-fill {
        fill: #262626;
        stroke: none;
      }
      .label {
        fill: #999;
        stroke: none;
        font-family: Arial, sans-serif;
        font-size: 10px;
        text-anchor: middle;
      }
    </style><style
       id="style818-7">
      .icon-stroke {
        fill: none;
        stroke: #262626;
        stroke-width: 2;
        stroke-linecap: round;
        stroke-linejoin: round;
      }
      .icon-fill {
        fill: #262626;
        stroke: none;
      }
      .label {
        fill: #999;
        stroke: none;
        font-family: Arial, sans-serif;
        font-size: 10px;
        text-anchor: middle;
      }
    </style></defs><g
     transform="matrix(0,1.9469989,-1.9469989,0,-100.17714,-31.123528)"
     id="g3060"
     style="stroke:#262626;stroke-width:0.513611;stroke-dasharray:none;stroke-opacity:1"><path
       id="path3058"
       style="fill:none;fill-opacity:1;stroke:#262626;stroke-width:0.513611;stroke-dasharray:none;stroke-opacity:1"
       d="m 21.493867,-62.480608 -1.350556,1.350556 a 0.87527937,0.87527937 0 0 0 0,1.237646 l 3.976394,3.976394 m -5.251678,-2.1882 a 0.87527937,0.87527937 0 0 1 0.875279,0.875279 0.87527937,0.87527937 0 0 1 -0.875279,0.87528 0.87527937,0.87527937 0 0 1 -0.87528,-0.87528 0.87527937,0.87527937 0 0 1 0.87528,-0.875279 z m -2.625836,5.407694 v -8.908808 c 0,-0.484905 0.390375,-0.87528 0.87528,-0.87528 h 6.126955 c 0.484905,0 0.87528,0.390375 0.87528,0.87528 v 9.320274 l -1.635729,-2.400668 -0.56787,1.210686 -1.025502,-1.227726 -2.332196,2.037316 -0.861498,-1.843187 z" /></g></svg>
