<?xml version="1.0" encoding="UTF-8" standalone="no"?>
<svg
   width="5.0270834mm"
   height="4.4979167mm"
   viewBox="0 0 19 17"
   version="1.1"
   id="svg1172"
   xml:space="preserve"
   xmlns="http://www.w3.org/2000/svg"
   xmlns:svg="http://www.w3.org/2000/svg"><defs
     id="defs820"><style
       id="style818">
      .icon-stroke {
        fill: none;
        stroke: #262626;
        stroke-width: 2;
        stroke-linecap: round;
        stroke-linejoin: round;
      }
      .icon-fill {
        fill: #262626;
        stroke: none;
      }
      .label {
        fill: #999;
        stroke: none;
        font-family: Arial, sans-serif;
        font-size: 10px;
        text-anchor: middle;
      }
    </style><style
       id="style818-7">
      .icon-stroke {
        fill: none;
        stroke: #262626;
        stroke-width: 2;
        stroke-linecap: round;
        stroke-linejoin: round;
      }
      .icon-fill {
        fill: #262626;
        stroke: none;
      }
      .label {
        fill: #999;
        stroke: none;
        font-family: Arial, sans-serif;
        font-size: 10px;
        text-anchor: middle;
      }
    </style></defs><g
     transform="translate(-3.5,-1.5)"
     id="g7139"
     style="stroke:#262626;stroke-width:1;stroke-dasharray:none;stroke-opacity:1"><path
       id="path7135"
       style="fill:none;stroke:#262626;stroke-width:1;stroke-linecap:round;stroke-linejoin:round;stroke-dasharray:none;stroke-opacity:1"
       class="icon-stroke"
       d="m 10,9 v 6 m 0,0 -2,-2 m 2,2 2,-2 M 5,6 h 10 c 0.554,0 1,0.446 1,1 v 10 c 0,0.554 -0.446,1 -1,1 H 5 C 4.446,18 4,17.554 4,17 V 7 C 4,6.446 4.446,6 5,6 Z M 10,5.7043405 V 3 c 0,-0.554 0.446,-1 1,-1 h 10 c 0.554,0 1,0.446 1,1 v 10 c 0,0.554 -0.446,1 -1,1 h -4.811353" /></g></svg>
