<?xml version="1.0" encoding="UTF-8" standalone="no"?>
<svg
   width="6.3812079mm"
   height="2.5983379mm"
   viewBox="0 0 24.117951 9.8204897"
   version="1.1"
   id="svg1172"
   xml:space="preserve"
   xmlns="http://www.w3.org/2000/svg"
   xmlns:svg="http://www.w3.org/2000/svg"><defs
     id="defs820"><style
       id="style818">
      .icon-stroke {
        fill: none;
        stroke: #262626;
        stroke-width: 2;
        stroke-linecap: round;
        stroke-linejoin: round;
      }
      .icon-fill {
        fill: #262626;
        stroke: none;
      }
      .label {
        fill: #999;
        stroke: none;
        font-family: Arial, sans-serif;
        font-size: 10px;
        text-anchor: middle;
      }
    </style><style
       id="style818-7">
      .icon-stroke {
        fill: none;
        stroke: #262626;
        stroke-width: 2;
        stroke-linecap: round;
        stroke-linejoin: round;
      }
      .icon-fill {
        fill: #262626;
        stroke: none;
      }
      .label {
        fill: #999;
        stroke: none;
        font-family: Arial, sans-serif;
        font-size: 10px;
        text-anchor: middle;
      }
    </style></defs><g
     transform="matrix(0.88204897,0,0,0.88204897,1.5667263,-5.6743428)"
     id="g960"
     style="stroke:#262626;stroke-width:1.13372;stroke-dasharray:none;stroke-opacity:1"><path
       id="circle956"
       style="fill:#262626;stroke:#262626;stroke-width:1.13372;stroke-dasharray:none;stroke-opacity:1"
       class="icon-fill"
       d="m 25,12 a 5,5 0 0 1 -5,5 5,5 0 0 1 -5,-5 5,5 0 0 1 5,-5 5,5 0 0 1 5,5 z m -13.604687,0 a 3,3 0 0 1 -2.9999995,3 3,3 0 0 1 -3,-3 3,3 0 0 1 3,-3 3,3 0 0 1 2.9999995,3 z M 1.7906269,12 A 1.5,1.5 0 0 1 0.29062686,13.5 1.5,1.5 0 0 1 -1.2093731,12 1.5,1.5 0 0 1 0.29062686,10.5 1.5,1.5 0 0 1 1.7906269,12 Z" /></g></svg>
